<?xml version="1.0" standalone="no"?>
<!DOCTYPE svg PUBLIC "-//W3C//DTD SVG 1.1//EN" "http://www.w3.org/Graphics/SVG/1.1/DTD/svg11.dtd" >
<svg xmlns="http://www.w3.org/2000/svg" xmlns:xlink="http://www.w3.org/1999/xlink" version="1.1" viewBox="-10 0 1034 1024">
   <path fill="currentColor"
d="M657 176q-33 0 -70 8q29 11 68 36q22 14 31 23q13 14 8 27q-18 32 -63 29q-30 -2 -70 -20l-22 -11q-37 -18 -57 -25q-33 -11 -60 -6q-56 10 -91 110q51 -15 90 -11q53 5 74 44q12 23 14 54.5t-8 56.5q-12 29 -37 39q-30 12 -61 0q-18 -7 -52 -32q-21 -16 -31 -22
q-47 -26 -75 -33q-50 -12 -69 24q-8 14 -10 33q-1 12 0 34.5t0 33.5q-2 18 -9 32q-12 23 -35 33q-19 8 -47 7q-16 0 -48 -5l-8 -1l6 6q18 18 28 26q43 33 80 27q18 -4 33 -13q12 -8 27 -22q6 -6 16 -18.5t16 -17.5q9 -9 21 -13q31 -9 63 7t54 46q23 33 20 67q-2 32 -39 59
q-20 14 -62 20q25 34 68 43q29 6 89 0q19 -1 60 -12q34 -10 51 -12q28 -4 50 1q27 6 34 26q7 17 -2.5 39t-27.5 37q-53 43 -149 35q61 30 115 45q95 27 173 7q72 -18 126 -75q50 -52 79 -131q27 -75 32 -162.5t-14 -170.5q-19 -86 -58 -152q-43 -71 -104 -109
q-66 -42 -147 -41zM850 365q11 0 17 8q35 54 54 115.5t19 127t-19.5 128t-57.5 116.5q-4 7 -12 8.5t-14.5 -3.5t-8 -12.5t2.5 -14.5q35 -49 52.5 -106t17.5 -116.5t-17 -115.5t-50 -105q-4 -7 -2.5 -15t7.5 -11.5t11 -3.5zM779 412q10 0 16 9q59 88 59 194.5t-62 195.5
q-4 7 -12 8.5t-14.5 -3t-8 -12.5t3.5 -14q54 -80 54 -174.5t-52 -172.5q-5 -7 -3 -15t8 -12t11 -4zM704 463q10 0 16 8q43 65 43 144t-45 145q-5 7 -12.5 8.5t-14 -3t-8 -12.5t2.5 -15q39 -55 39 -122.5t-37 -122.5q-5 -7 -3.5 -14.5t7.5 -11.5t12 -4z" />
</svg>
