<?xml version="1.0" standalone="no"?>
<!DOCTYPE svg PUBLIC "-//W3C//DTD SVG 1.1//EN" "http://www.w3.org/Graphics/SVG/1.1/DTD/svg11.dtd" >
<svg xmlns="http://www.w3.org/2000/svg" xmlns:xlink="http://www.w3.org/1999/xlink" version="1.1" viewBox="-10 0 1034 1024">
   <path fill="currentColor"
d="M351 177v129h-50v0h-108v84l29 -1q29 0 28 1q39 0 45 34v147h8h-8v206q-1 10 -7 16q-8 10 -22 10h-29h-28l-16 93l158 1v130h78v-129q31 1 63 1v128h78v-130q110 -6 163 -39q65 -39 73 -126q6 -71 -25 -111q-28 -36 -88 -51q77 -39 68 -131q-7 -65 -61 -98
q-45 -28 -130 -35v-129h-78v125l-63 1v-126h-78zM471 394q60 0 94 13q50 19 49 67q0 52 -65 69q-36 10 -105 9h-13v-157zM479 630q72 0 112 14q60 20 60 73q0 41 -39 62q-30 17 -84 22q-30 3 -81 2h-16v-172z" />
</svg>
