<?xml version="1.0" standalone="no"?>
<!DOCTYPE svg PUBLIC "-//W3C//DTD SVG 1.1//EN" "http://www.w3.org/Graphics/SVG/1.1/DTD/svg11.dtd" >
<svg xmlns="http://www.w3.org/2000/svg" xmlns:xlink="http://www.w3.org/1999/xlink" version="1.1" viewBox="-10 0 1034 1024">
   <path fill="currentColor"
d="M500 228q-167 0 -282 116q-118 120 -118 284t118 282t282.5 118t285.5 -119q114 -113 114 -281t-116 -284t-284 -116zM501 300q136 0 231.5 95.5t95.5 232.5q0 45 -10 85l-220 -97h6v-48h-113l-46 -20q6 -14 14 -23q29 -36 82 -36q37 0 74 16l19 -77q-45 -20 -100 -20
q-47 0 -86.5 18t-68.5 51q-11 13 -22 32l-132 -58q19 -29 45 -55q94 -96 231 -96zM190 522l106 46h-8v48h38l-1 31h-37v48h44q8 51 36.5 87.5t71.5 56t92 19.5q30 0 60 -8q26 -6 45 -17l-16 -74q-13 6 -32 11q-23 6 -45 6q-56 0 -86 -34q-15 -17 -22 -47h146l206 92
q-21 38 -54 70q-99 98 -233.5 98t-231.5 -97t-97 -230q0 -56 18 -106zM473 647h1h-1z" />
</svg>
