<?xml version="1.0" standalone="no"?>
<!DOCTYPE svg PUBLIC "-//W3C//DTD SVG 1.1//EN" "http://www.w3.org/Graphics/SVG/1.1/DTD/svg11.dtd" >
<svg xmlns="http://www.w3.org/2000/svg" xmlns:xlink="http://www.w3.org/1999/xlink" version="1.1" viewBox="-10 0 1034 1024">
   <path fill="currentColor"
d="M499 228q-165 0 -281 116q-118 120 -118 284t118 282t282 118t286 -119q114 -112 114 -280.5t-116 -284.5t-285 -116zM501 300q136 0 231 96q96 94 96 232q0 44 -10 86l-355 -159q-4 -5 -4 -10q0 -17 15 -24t33 -7q35 0 69 23l52 -53q-45 -34 -100 -37v-62h-47v62
q-37 2 -64.5 21t-37.5 50l-153 -68q20 -30 44 -54q94 -96 231 -96zM190 520l204 92l64 28l47 21l39 16q10 10 10 25q0 21 -14.5 30.5t-35.5 9.5q-50 0 -89 -37l-55 56q55 47 121 48v61h47v-61q41 -4 71.5 -28t38.5 -61l151 67q-20 36 -55 70q-98 98 -232.5 98t-232 -97
t-97.5 -230q0 -58 18 -108z" />
</svg>
