<?xml version="1.0" standalone="no"?>
<!DOCTYPE svg PUBLIC "-//W3C//DTD SVG 1.1//EN" "http://www.w3.org/Graphics/SVG/1.1/DTD/svg11.dtd" >
<svg xmlns="http://www.w3.org/2000/svg" xmlns:xlink="http://www.w3.org/1999/xlink" version="1.1" viewBox="-10 0 1034 1024">
   <path fill="currentColor"
d="M499 227q-165 0 -281 117q-118 120 -118 284t118.5 281.5t280.5 117.5q166 0 287 -118q114 -114 114 -281.5t-116.5 -284t-284.5 -116.5zM501 300q136 0 231 96q96 94 96 231.5t-94 229.5q-100 98 -234 98t-231 -97t-97 -230t98 -232q94 -96 231 -96zM361 533v69h290v-69
h-290zM361 662v68h290v-68h-290z" />
</svg>
