<?xml version="1.0" standalone="no"?>
<!DOCTYPE svg PUBLIC "-//W3C//DTD SVG 1.1//EN" "http://www.w3.org/Graphics/SVG/1.1/DTD/svg11.dtd" >
<svg xmlns="http://www.w3.org/2000/svg" xmlns:xlink="http://www.w3.org/1999/xlink" version="1.1" viewBox="-10 0 1034 1024">
   <path fill="currentColor"
d="M500 227q-109 0 -202 55q-90 53 -143 143q-55 93 -55 202t55 202q53 90 143 143q93 55 202 55t202 -55q90 -53 143 -143q55 -93 55 -202t-55 -202q-53 -90 -143 -143q-93 -55 -202 -55zM500 302q88 0 164 44q73 44 117 117q44 76 44 164q0 43 -11 84l-362 -162
q23 -42 65 -42q23 0 43 14q7 5 12 10l66 -67q-52 -44 -127 -44q-55 0 -97 23q-40 21 -65 60l-121 -54q45 -68 115 -107q73 -40 157 -40zM193 520l127 57q-5 26 -5 53q0 74 34 124q28 42 77 63q40 17 83 17q62 0 113 -35q8 -6 15 -12l-58 -71l-5 5q-23 22 -54 22v0
q-42 0 -66 -39q-20 -32 -20 -77l351 156q-42 77 -117 122q-77 47 -168 47q-88 0 -164 -44q-73 -44 -117 -117q-44 -76 -44 -164q0 -55 18 -107z" />
</svg>
