<?xml version="1.0" standalone="no"?>
<!DOCTYPE svg PUBLIC "-//W3C//DTD SVG 1.1//EN" "http://www.w3.org/Graphics/SVG/1.1/DTD/svg11.dtd" >
<svg xmlns="http://www.w3.org/2000/svg" xmlns:xlink="http://www.w3.org/1999/xlink" version="1.1" viewBox="-10 0 1034 1024">
   <path fill="currentColor"
d="M499 228q-165 0 -281 117q-118 120 -118 284t118.5 281.5t280.5 117.5q166 0 287 -118q114 -114 114 -281.5t-116.5 -284t-284.5 -116.5zM501 300q136 0 231 97q96 94 96 231.5t-94 229.5q-100 97 -234 97t-231 -96.5t-97 -229.5t98 -232q94 -97 231 -96v-1zM498 418
q-69 0 -116.5 40t-59.5 114h-31l79 79l79 -79h-29q10 -71 90 -71q44 0 67.5 33.5t23.5 96.5q0 61 -25.5 97.5t-67.5 36.5q-84 0 -88 -73h-101q10 75 59.5 115.5t117.5 40.5q92 0 150 -61t58 -153q0 -95 -56 -155.5t-150 -60.5z" />
</svg>
