<?xml version="1.0" standalone="no"?>
<!DOCTYPE svg PUBLIC "-//W3C//DTD SVG 1.1//EN" "http://www.w3.org/Graphics/SVG/1.1/DTD/svg11.dtd" >
<svg xmlns="http://www.w3.org/2000/svg" xmlns:xlink="http://www.w3.org/1999/xlink" version="1.1" viewBox="-10 0 1034 1024">
   <path fill="currentColor"
d="M500 177q-17 0 -34 1q-73 6 -141.5 36.5t-120.5 82.5q-62 59 -96.5 140t-32.5 166q-1 65 19.5 128.5t59.5 117.5q55 78 141 125t181 52q17 2 50 -1l19 -1q62 -6 120.5 -31t106.5 -65q68 -57 108.5 -138.5t43.5 -168.5q2 -13 0 -38l-1 -19q-6 -76 -40 -146t-90 -123
q-58 -56 -135 -87t-158 -31zM499 262h5q44 0 77 9q48 12 91 37t76 61q39 41 62.5 92.5t29 106.5t-8.5 112q-14 61 -50 114t-88 88q-43 30 -93 45.5t-100.5 15.5t-100 -15.5t-92.5 -44.5t-75.5 -70.5t-51.5 -90.5q-21 -55 -22 -115t19 -115q28 -84 97 -145q39 -35 88 -57
t101 -27zM642 448q-4 0 -7 1q-10 2 -16.5 10.5t-6.5 18.5v68q-1 21 11 30q8 7 19.5 6.5t20.5 -7.5t10 -18q1 -19 1 -57v-22q0 -13 -10 -21.5t-22 -8.5zM729 448h-1q-4 0 -7 1q-9 3 -15.5 10t-5.5 16v83q0 7 4.5 13t12.5 9q14 7 28 -1.5t15 -23.5q1 -21 0 -64v-13
q0 -12 -9.5 -21t-21.5 -9zM556 448q-4 0 -7 1q-10 2 -17 10.5t-6 18.5v74q-1 9 4.5 17t14.5 12q14 5 28 -3t14 -23v-80q0 -11 -9.5 -19t-21.5 -8zM365 448q-45 2 -76.5 22t-50 55t-18.5 73v6q0 30 4 45q6 29 24.5 53.5t44.5 38t55.5 14.5t57.5 -9q18 -7 36 -23
q12 -10 30 -30q2 -3 0.5 -5.5t-5.5 -5.5l-4 -4q-13 14 -24 22q-18 13 -41 13t-42 -12q-24 -17 -37 -54q-8 -24 -10 -54q-1 -21 1 -55q3 -20 8 -32q6 -17 16 -26.5t23 -11.5t23 7q5 4 6 12q1 4 1 14v8q1 15 3 23q3 12 10 18t17 7q6 0 17 -1h2q14 -3 22.5 -15t7.5 -26
q-3 -24 -18 -38.5t-38 -21.5q-21 -7 -45 -7z" />
</svg>
