<?xml version="1.0" standalone="no"?>
<!DOCTYPE svg PUBLIC "-//W3C//DTD SVG 1.1//EN" "http://www.w3.org/Graphics/SVG/1.1/DTD/svg11.dtd" >
<svg xmlns="http://www.w3.org/2000/svg" xmlns:xlink="http://www.w3.org/1999/xlink" version="1.1" viewBox="-10 0 1034 1024">
   <path fill="currentColor"
d="M521 226q-94 2 -176 43q-65 33 -115.5 88.5t-76.5 123.5q27 -8 55.5 -5t54.5 16q30 -57 76 -94q37 -30 82 -47t92 -19q55 -3 108.5 16t95.5 55q34 29 58.5 69t35.5 85q26 7 42 30t12 48q-3 22 -17.5 38.5t-35.5 21.5q-15 50 -32 78q-31 55 -83.5 93t-113.5 50
q-42 8 -85 4t-83 -20q-49 -20 -88.5 -56t-63.5 -83q-25 13 -53.5 16t-56.5 -5q32 83 98.5 145.5t150.5 89.5q67 22 139.5 19t137.5 -30t117.5 -76t84.5 -112q30 -58 39.5 -124t-2.5 -130t-43.5 -121t-78.5 -100q-42 -40 -94.5 -66t-110.5 -35q-34 -6 -71 -6h1zM192 508
q-13 1 -27 3q-24 6 -44 21.5t-32 37.5q-18 31 -12 79q5 26 21.5 48.5t40.5 34.5q36 19 78.5 10t67.5 -42q17 -20 23 -46.5t0 -54t-25.5 -50.5t-46.5 -33q-21 -8 -44 -8zM451 546q-11 0 -22 3q-21 6 -37 23t-20 38q-5 19 -0.5 38.5t17.5 35t32 23t38 5.5q24 -1 43.5 -16
t28.5 -37.5t3 -45.5q-4 -29 -29 -48.5t-54 -18.5zM640 563q-7 0 -15 1q-22 6 -36.5 24t-14.5 40t13.5 41t34.5 24q14 5 29.5 2.5t28.5 -11.5t20.5 -24t7.5 -31q0 -20 -11.5 -37.5t-30.5 -24.5q-11 -5 -26 -4zM794 585q-8 0 -15 2q-12 4 -22 18.5t-6 33.5t18.5 28t31.5 6.5
t28 -15.5t9.5 -32.5t-15.5 -30.5q-11 -10 -29 -10zM871 970l-13 53h8l7 -29v-3l2 3l16 30l16 -30l1 -3l7 32h9l-14 -53l-19 39zM814 972v7h15v44h9v-44h15v-7h-39z" />
</svg>
