<?xml version="1.0" standalone="no"?>
<!DOCTYPE svg PUBLIC "-//W3C//DTD SVG 1.1//EN" "http://www.w3.org/Graphics/SVG/1.1/DTD/svg11.dtd" >
<svg xmlns="http://www.w3.org/2000/svg" xmlns:xlink="http://www.w3.org/1999/xlink" version="1.1" viewBox="-10 0 1034 1024">
   <path fill="currentColor"
d="M502 197q-96 0 -96.5 1.5t-1.5 137t-1.5 138t-2 2.5t-134.5 -43.5t-133.5 -42.5t-30 94t-28.5 94l232 77q21 8 21 10t-79.5 117.5t-79.5 116.5t79.5 56.5t80.5 55.5t81 -110t82 -110t41 55l83 115q43 60 44 60t79.5 -58t79 -59t-76 -112.5t-76 -113.5t129.5 -45.5
t129.5 -44t-28 -94t-29.5 -94.5t-128 42t-128.5 43t-2.5 -7.5t-1 -38.5l-3 -108q-4 -133 -5 -133.5t-97 -0.5z" />
</svg>
