<?xml version="1.0" standalone="no"?>
<!DOCTYPE svg PUBLIC "-//W3C//DTD SVG 1.1//EN" "http://www.w3.org/Graphics/SVG/1.1/DTD/svg11.dtd" >
<svg xmlns="http://www.w3.org/2000/svg" xmlns:xlink="http://www.w3.org/1999/xlink" version="1.1" viewBox="-10 0 1034 1024">
   <path fill="currentColor"
d="M455 226q-22 0 -40 8q-26 10 -40 32.5t-15 53.5q-1 52 36 107l1 1q-22 -46 -13 -85t45 -54q27 -10 62 -2.5t68.5 31.5t56.5 58q27 40 30.5 79.5t-16.5 64.5q25 -16 34.5 -46t1.5 -66.5t-33 -73.5q-33 -49 -82.5 -78.5t-95.5 -29.5zM505 368q-19 0 -35 12t-22 31.5t1 38.5
l-104 76q7 6 12 13t8 15l104 -76q16 13 36.5 13t37.5 -12q21 -15 25 -40t-11 -46q-9 -12 -22 -18.5t-27 -6.5h-3zM820 381q-23 0 -47 12q-47 24 -78 83q30 -41 68.5 -51t68.5 15q22 19 31.5 53.5t4 75t-24.5 77.5q-14 25 -32 44l1 2q10 8 18 19q34 -25 57 -68.5t29.5 -90.5
t-4.5 -87.5t-37 -62.5q-24 -21 -55 -21zM298 416q-49 0 -100 32q-42 25 -71 62.5t-40 77.5t0 73q9 26 31 41.5t52 17.5q53 3 109 -31l1 -1q-47 20 -85.5 9.5t-51.5 -47.5q-9 -28 0 -62.5t34.5 -67t60.5 -53.5q42 -25 81.5 -27t63.5 19q-12 -20 -33 -31t-49 -12h-3zM525 512
q-17 4 -34 0v87q-10 3 -19 9q-21 15 -25 40t11 46q12 17 31.5 23t38.5 -1l67 92q-8 9 -11 21l-1 4l-1 15l2 16q3 9 9 18q15 20 40.5 24t46 -11t24.5 -40t-11 -46q-9 -12 -21.5 -18.5t-27.5 -6.5q-11 0 -21 3l-67 -91q13 -16 13.5 -36.5t-12 -37.5t-32.5 -23v-87zM725 526
q-19 1 -35 12q-12 9 -19 22.5t-6 28.5l-84 27q9 16 11 33l52 -17l32 -8q15 21 40.5 25t46 -11t24.5 -40.5t-11 -45.5q-9 -12 -21.5 -19t-27.5 -7h-2zM287 527q-19 1 -35 12q-21 15 -25 40t11 46t40.5 25t46 -11t24.5 -40t-11 -46q-9 -12 -22 -18.5t-27 -7.5h-2zM728 689
q-7 1 -15 1q-52 7 -101 52v0q42 -28 82 -25t59 37q15 26 12 61.5t-21.5 72t-49.5 64.5q-36 32 -74.5 41t-66.5 -7q20 23 50.5 28t66 -8.5t68.5 -42.5q35 -33 57 -75t25.5 -83.5t-14.5 -71.5q-12 -22 -32.5 -33t-45.5 -11zM445 715l-38 54q16 7 28 20l39 -54q-17 -7 -29 -20z
M266 734h-5q-10 1 -19 2q-30 5 -50.5 22.5t-27.5 44.5q-7 34 7.5 72.5t47.5 73t77 55.5q39 19 76.5 21.5t66 -11t40.5 -40.5q-22 24 -61.5 26t-83.5 -19q-37 -18 -65.5 -47.5t-41 -63t-5.5 -62.5q8 -37 45.5 -51.5t86.5 0.5l-1 -1q-45 -21 -87 -22zM371 785q-19 0 -34 11
q-21 15 -25 40.5t11 46t40 24.5t46 -11q17 -12 23 -32h129l-2 -22q0 -6 1 -13h-128q-3 -10 -9 -19l-10 -10l-20 -12q-10 -3 -19 -3h-3z" />
</svg>
