<?xml version="1.0" standalone="no"?>
<!DOCTYPE svg PUBLIC "-//W3C//DTD SVG 1.1//EN" "http://www.w3.org/Graphics/SVG/1.1/DTD/svg11.dtd" >
<svg xmlns="http://www.w3.org/2000/svg" xmlns:xlink="http://www.w3.org/1999/xlink" version="1.1" viewBox="-10 0 1034 1024">
   <path fill="currentColor"
d="M315 189q-78 0 -144 39q-64 37 -102 102q-39 66 -39 142.5t37 141.5q36 64 99 102.5t138 41.5q13 65 53 117.5t99 81.5q60 30 128 30q77 0 143 -39q65 -37 103 -102q38 -66 38 -142.5t-37 -141.5q-36 -64 -99 -102.5t-138 -41.5q-13 -65 -53 -117t-98 -82
q-60 -30 -128 -30zM315 239q63 0 117 31.5t85.5 85.5t31.5 117.5t-31.5 117.5t-85.5 85.5t-117.5 31.5t-117.5 -31.5t-85.5 -85.5t-31.5 -117.5t31.5 -117.5t85.5 -85.5t118 -31.5zM227 388q-24 0 -40.5 17t-16.5 40.5t16.5 40.5t40.5 17t40.5 -17t16.5 -40.5t-16.5 -40.5
t-40.5 -17zM402 388q-24 0 -41 17t-17 40.5t17 40.5t40.5 17t40.5 -17t17 -40.5t-17 -40.5t-40 -17zM599 469q61 4 111 36t79 84.5t29 113.5q0 63 -31.5 117t-85.5 85.5t-117 31.5q-55 0 -103 -23.5t-81 -65t-45 -93.5q56 -8 104 -36q16 13 37 13q24 0 40.5 -17t16.5 -40
q0 -18 -9 -32q26 -36 40.5 -79.5t14.5 -89.5v-5zM671 618q-24 0 -41 16.5t-17 40t17 40.5t40.5 17t40.5 -17t17 -40.5t-17 -40t-40 -16.5z" />
</svg>
