<?xml version="1.0" standalone="no"?>
<!DOCTYPE svg PUBLIC "-//W3C//DTD SVG 1.1//EN" "http://www.w3.org/Graphics/SVG/1.1/DTD/svg11.dtd" >
<svg xmlns="http://www.w3.org/2000/svg" xmlns:xlink="http://www.w3.org/1999/xlink" version="1.1" viewBox="-10 0 1034 1024">
   <path fill="currentColor"
d="M225 177q-37 0 -70.5 18.5t-54.5 50t-24 68.5v1q-1 113 -1 337v206q-4 40 13.5 77.5t50.5 62t74 27.5h1q112 1 337 1h206q40 4 77.5 -13.5t62 -50.5t27.5 -74v-1q1 -113 1 -338v-207q4 -41 -15 -79t-54 -61.5t-77 -24.5h-554zM636 211h143q31 0 58 19t42 49t12 61v209
q0 225 -1 337q-2 31 -21.5 56.5t-49 39t-60.5 10.5h-395v-204h272l-1 -203l-271 1v-172h272v-203z" />
</svg>
