<?xml version="1.0" standalone="no"?>
<!DOCTYPE svg PUBLIC "-//W3C//DTD SVG 1.1//EN" "http://www.w3.org/Graphics/SVG/1.1/DTD/svg11.dtd" >
<svg xmlns="http://www.w3.org/2000/svg" xmlns:xlink="http://www.w3.org/1999/xlink" version="1.1" viewBox="-10 0 1034 1024">
   <path fill="currentColor"
d="M256 226q-42 0 -78 21t-57 57t-21 78v488q0 42 21 78t57 57t78 21h488q42 0 78 -21t57 -57t21 -78v-488q0 -42 -21 -78t-57 -57t-78 -21h-488zM623 312q15 0 26 10l150 151q12 11 12 26.5t-11 26.5t-27 11t-27 -11l-17 -17l-116 115q14 43 4 87t-43 76l-238 -239
q32 -32 75.5 -42t86.5 3l116 -115l-18 -19q-11 -11 -11 -26t11 -26t27 -11zM188 612q55 -1 107.5 17.5t95.5 54.5l-130 131q-10 11 -10 26t11 26t26 11t26 -10l129 -129q35 47 50 103t9 113h-209q-33 1 -60 -15t-43 -43.5t-16 -59.5v-225h14z" />
</svg>
