<?xml version="1.0" standalone="no"?>
<!DOCTYPE svg PUBLIC "-//W3C//DTD SVG 1.1//EN" "http://www.w3.org/Graphics/SVG/1.1/DTD/svg11.dtd" >
<svg xmlns="http://www.w3.org/2000/svg" xmlns:xlink="http://www.w3.org/1999/xlink" version="1.1" viewBox="-10 0 1034 1024">
   <path fill="currentColor"
d="M224 175q-30 0 -55.5 15t-40.5 40.5t-15 56.5v447q0 30 15 55.5t40.5 40.5t55.5 15h333q0 36 -18 68q-15 27 -43 50q-22 19 -51 35q-20 12 -42 21l-18 6l30 -1q38 -3 75 -11q50 -10 91 -27q52 -22 84 -53q39 -38 50 -88h61q30 0 55.5 -15t40.5 -40.5t15 -55.5v-447
q0 -31 -15 -56.5t-40.5 -40.5t-55.5 -15h-552zM387 265q2 0 4 1q3 3 2.5 6.5t-5.5 9.5q-7 12 -10 21q-5 16 -4 36v9q0 12 1 16q3 8 11 12t26 4q9 0 15 -4q3 -2 8.5 -8.5t9.5 -9.5q8 -4 21 -4q26 0 33 25q7 -25 33 -25q13 0 20 4q5 3 10 9.5t9 8.5q6 4 15 4q18 0 26 -4
t10 -12q2 -4 2 -16v-9q1 -20 -5 -36q-3 -9 -10 -21q-4 -6 -5 -9.5t3 -6.5q5 -5 20.5 9t29 34.5t14.5 32.5q1 27 -3 44q-8 28 -32 41q18 19 30 43q9 18 14 37l3 16l-73 -1l-4 -12q-5 -14 -15 -25q-13 -16 -31 -25q-24 -11 -54 -9q-45 2 -64 10q-21 9 -29 32q-6 20 -6 70
q0 66 28 97q25 28 75 30q44 1 67 -12q16 -9 21 -25q2 -8 1 -14v0l-46 2l-25 -68h156q0 45 -14 82q-17 48 -53 74q-44 31 -113 28q-100 -5 -147 -75q-35 -52 -36 -128q-1 -85 41 -127q-23 -13 -31 -39q-4 -15 -4 -44v-2q0 -16 11 -35q11 -17 25.5 -29.5t23.5 -12.5z" />
</svg>
