<?xml version="1.0" standalone="no"?>
<!DOCTYPE svg PUBLIC "-//W3C//DTD SVG 1.1//EN" "http://www.w3.org/Graphics/SVG/1.1/DTD/svg11.dtd" >
<svg xmlns="http://www.w3.org/2000/svg" xmlns:xlink="http://www.w3.org/1999/xlink" version="1.1" viewBox="-10 0 1034 1024">
   <path fill="currentColor"
d="M300 177q-15 0 -40 22.5t-43 51.5q-20 33 -20 59v5q0 31 2 49q4 30 16 51q15 27 43 43q-41 41 -59 103q-13 50 -12 115q1 81 25 148q31 86 95 136q76 60 195 66.5t195 -47.5q63 -45 93 -127q23 -66 23 -143h-269l44 118l79 -4v10q-1 11 -6 23q-7 15 -21 26q-18 15 -46 22
q-34 8 -81 6q-86 -3 -129 -51q-48 -53 -48 -168q0 -64 5 -96q6 -38 23.5 -57.5t51.5 -28.5q31 -8 91 -11q42 -1 76 11q29 10 52 30q18 16 32 37q9 15 15 32l4 13l125 2l-2 -15q-4 -20 -12 -41q-10 -28 -24 -53q-19 -32 -43 -56q42 -23 55 -71q8 -29 6 -77q-1 -20 -26 -56
q-22 -35 -48 -58q-27 -25 -37 -16q-6 5 -4 12q1 4 8 16q12 20 18 36q9 28 8 62l-1 15q0 20 -2 28q-4 14 -17 20q-15 7 -46 7q-16 0 -26 -7q-6 -3 -15 -14.5t-17 -15.5q-13 -8 -35 -8q-45 0 -57 43q-12 -43 -57 -43q-23 0 -36 8q-8 4 -17 15.5t-15 14.5q-10 7 -25 7
q-31 0 -46 -7q-13 -6 -17 -20q-3 -8 -3 -28v-15q-2 -34 8 -62q5 -16 17 -36q8 -12 9 -16q1 -7 -5 -12q-2 -3 -7 -3z" />
</svg>
