<?xml version="1.0" standalone="no"?>
<!DOCTYPE svg PUBLIC "-//W3C//DTD SVG 1.1//EN" "http://www.w3.org/Graphics/SVG/1.1/DTD/svg11.dtd" >
<svg xmlns="http://www.w3.org/2000/svg" xmlns:xlink="http://www.w3.org/1999/xlink" version="1.1" viewBox="-10 0 1034 1024">
   <path fill="currentColor"
d="M160 324q-67 0 -113.5 47t-46.5 113v287q0 66 46.5 113t113.5 47h680q67 0 113.5 -47t46.5 -113v-287q0 -66 -46.5 -113t-113.5 -47h-680zM320 405q80 0 80 85q0 17 -19.5 72t-19.5 65q0 27 24.5 48t54.5 31t54.5 22.5t24.5 25.5v53h-395v-53q0 -14 24.5 -27.5t53.5 -24
t54 -30t25 -44.5q0 -6 -20 -62.5t-20 -75.5q0 -47 21 -66t58 -19zM609 482q118 0 202.5 84.5t84.5 204.5h-55q0 -97 -68 -165.5t-164 -68.5v-55zM609 580q78 0 133.5 55.5t55.5 134.5h-55q0 -55 -39.5 -95t-94.5 -40v-55zM647 693q16 0 27 11.5t11 27.5t-11 27t-27 11
t-27 -11t-11 -27t11 -27.5t27 -11.5z" />
</svg>
