<?xml version="1.0" standalone="no"?>
<!DOCTYPE svg PUBLIC "-//W3C//DTD SVG 1.1//EN" "http://www.w3.org/Graphics/SVG/1.1/DTD/svg11.dtd" >
<svg xmlns="http://www.w3.org/2000/svg" xmlns:xlink="http://www.w3.org/1999/xlink" version="1.1" viewBox="-10 0 1034 1024">
   <path fill="currentColor"
d="M160 323q-67 0 -113.5 46.5t-46.5 112.5v287q0 66 46.5 113t113.5 47h680q67 0 113.5 -47t46.5 -113v-287q0 -66 -46.5 -112.5t-113.5 -46.5h-680zM320 404q33 0 51 13q4 2 6 4q23 20 23 67q0 15 -12 52q-2 4 -4.5 11.5t-3.5 8.5q-19 55 -19 65v8q1 4 1 7q2 6 6 13
q6 11 17 21h1q10 9 25 17q12 6 29 13l43 17q21 9 29 17l3 3v1l4 6v58h-395v-54q0 -16 36 -33q3 -1 9 -4q3 -1 4 -2q66 -28 83 -42q5 -4 10 -9l2 -3q1 0 2 -1l1 -3h1l7 -15l1 -7q1 -3 1 -8t-7 -23q-2 -7 -9.5 -27t-10.5 -32q-6 -16 -7 -21q-3 -10 -4 -19l-2 -7v-8
q0 -12 2 -23v-1q2 -11 4 -17q6 -16 17 -26q2 -2 6 -4q14 -10 34 -13h16zM682 498h119v131h76l-135 141l-136 -141h76v-131z" />
</svg>
