<?xml version="1.0" standalone="no"?>
<!DOCTYPE svg PUBLIC "-//W3C//DTD SVG 1.1//EN" "http://www.w3.org/Graphics/SVG/1.1/DTD/svg11.dtd" >
<svg xmlns="http://www.w3.org/2000/svg" xmlns:xlink="http://www.w3.org/1999/xlink" version="1.1" viewBox="-10 0 1034 1024">
   <path fill="currentColor"
d="M336 127l-6 10q-3 4 -11 35.5t-16 71.5l-91 423q-70 327 -70 338t6 16l1 1l2 5h79q51 0 101 -1q63 0 72 -3q3 -1 4 -2q3 -3 4 -37.5t1 -117.5v-150l93 -35l88 33q1 3 2 8l2 144q0 78 1 107.5t2.5 38t2 9.5t9.5 3t63 2q50 2 100 1h74l2 -5l1 -1q2 -2 4 -7t2 -10
q0 -11 -50 -270l-104 -542q-4 -20 -9 -37t-8 -20.5t-14.5 -5t-48.5 -2.5h-114h-2h-172zM505 308h2q11 1 22 3q32 8 53.5 31.5t26 54.5t-9.5 61q-8 19 -23.5 33t-36.5 21q-35 13 -69 0q-32 -12 -51.5 -40.5t-19.5 -61.5q0 -35 26 -63q34 -39 80 -39z" />
</svg>
