<?xml version="1.0" standalone="no"?>
<!DOCTYPE svg PUBLIC "-//W3C//DTD SVG 1.1//EN" "http://www.w3.org/Graphics/SVG/1.1/DTD/svg11.dtd" >
<svg xmlns="http://www.w3.org/2000/svg" xmlns:xlink="http://www.w3.org/1999/xlink" version="1.1" viewBox="-10 0 1034 1024">
   <path fill="currentColor"
d="M353 175q-34 0 -62 17q-26 23 -29 54q-3 22 10 52q10 21 42 25q13 2 39 -3t36 -12q21 -17 25 -47q5 -39 -2 -57q-6 -11 -23 -19q-10 -4 -31 -9zM636 177q-20 0 -40 10q-23 12 -27 42q-8 111 5 200q3 24 0 49v0q0 20 -2 29q0 9 -2 13q-2 7 -8 12q-11 8 -35 12l-15 2
q-29 5 -44 3q-24 0 -32 -7q-3 -4 -2 -16v-6q0 -35 -3 -50q-2 -18 -19.5 -38.5t-41.5 -31.5q-28 -11 -57 -3q-16 5 -24 36q-4 18 -7 56q-2 20 -3 26q-2 16 -0.5 50t5.5 56.5t9 66.5l1 12q0 76 -5 113q-2 45 -11 133l-1 12q-4 30 7 44q11 18 39 22q14 2 41 -1t38 -8
q24 -12 27 -42q8 -95 -2 -183q-3 -14 -3 -43v-7q0 -12 1 -18q1 -11 6 -17.5t21 -11.5l36 -8q27 -4 54 0q9 0 20 7q6 6 9 23q2 9 3 14q8 22 18 42q7 13 19.5 23t26.5 14q23 5 42 -12q17 -14 28 -40q10 -22 11.5 -39.5t0 -66t-5.5 -70.5t-8 -66l-2 -12q0 -76 5 -113
q3 -45 11 -134l2 -11q3 -30 -8 -44q-5 -9 -30 -15q-18 -5 -39 -8h-9zM690 876q-19 0 -42 4q-27 4 -37 11q-21 17 -25 47q-4 26 0 52q2 15 9.5 22.5t22.5 9.5q21 0 46 -4q31 -5 43 -13q26 -23 29 -55q8 -21 -5 -49q-10 -20 -41 -25z" />
</svg>
