<?xml version="1.0" standalone="no"?>
<!DOCTYPE svg PUBLIC "-//W3C//DTD SVG 1.1//EN" "http://www.w3.org/Graphics/SVG/1.1/DTD/svg11.dtd" >
<svg xmlns="http://www.w3.org/2000/svg" xmlns:xlink="http://www.w3.org/1999/xlink" version="1.1" viewBox="-10 0 1034 1024">
   <path fill="currentColor"
d="M444 25q-20 0 -42 5q-66 15 -96 74q-27 52 -21 127q5 69 34 129q23 49 68 110q39 54 81 99.5t62 57.5q0 1 -1 3q-5 31 -15.5 55t-27.5 47q-16 19 -38.5 41t-70.5 64q-27 23 -43 50t-27 64q-3 13 -10 42q-11 49 -22.5 73.5t-33.5 45.5q-27 24 -47.5 33.5t-54.5 14.5
q-27 4 -41 11q-11 6 -21 16q-2 2 -2 4.5t2 4.5t4.5 2t4.5 -2q9 -8 18 -13q12 -7 36 -10q36 -5 58 -15q23 -11 52 -37q24 -22 37 -49q11 -25 23 -76q6 -28 10 -41q10 -35 25 -61t40 -47q49 -43 72 -65t39 -42q23 -30 35 -63q-5 33 -25 71l-20 36q-19 33 -24 55.5t0 50.5
q5 34 2 46l-1 1q-4 5 0 9q2 2 5 2t5 -2t3 -6q5 -15 -2 -52q-4 -26 0.5 -46t22.5 -51l21 -37q33 -66 27 -121q0 -2 -1 -3q26 -8 72 -29q63 -29 115 -63q68 -45 105 -93q46 -57 70 -123q26 -72 17 -131q-10 -66 -64 -103q-40 -26 -83 -26q-34 0 -73 18q-21 10 -56 32
q-14 9 -19 12q-9 5 -14 5t-12 -7q-5 -5 -16 -18q-30 -35 -53 -51q-41 -28 -89 -28zM464 937h-1h1z" />
</svg>
