<?xml version="1.0" standalone="no"?>
<!DOCTYPE svg PUBLIC "-//W3C//DTD SVG 1.1//EN" "http://www.w3.org/Graphics/SVG/1.1/DTD/svg11.dtd" >
<svg xmlns="http://www.w3.org/2000/svg" xmlns:xlink="http://www.w3.org/1999/xlink" version="1.1" viewBox="-10 0 1034 1024">
   <path fill="currentColor"
d="M121 292q-33 0 -60.5 15.5t-44 41.5t-16.5 58v436q0 31 16.5 57t44 41.5t60.5 15.5h758q33 0 60.5 -15.5t44 -41.5t16.5 -57v-437q0 -31 -16.5 -57t-44 -41.5t-60.5 -15.5h-758zM120 392h760q6 0 11 4.5t5 10.5v436q0 6 -5 10.5t-11 4.5h-461q-7 0 -11.5 -4.5t-4.5 -10.5
v-178q0 -25 -13 -47t-35.5 -35t-48.5 -13h-48q-17 0 -29 13t-12 29t12 27t28 11h49q7 0 11.5 4.5t4.5 10.5v178q0 6 -4.5 10.5t-11.5 4.5h-186q-7 0 -11.5 -4.5t-4.5 -10.5v-436q0 -6 4.5 -10.5t11.5 -4.5zM353 434q-23 0 -39 15t-16 36.5t16 38.5t38.5 17t38.5 -17
t16 -38.5t-16 -36.5t-38 -15z" />
</svg>
