<?xml version="1.0" standalone="no"?>
<!DOCTYPE svg PUBLIC "-//W3C//DTD SVG 1.1//EN" "http://www.w3.org/Graphics/SVG/1.1/DTD/svg11.dtd" >
<svg xmlns="http://www.w3.org/2000/svg" xmlns:xlink="http://www.w3.org/1999/xlink" version="1.1" viewBox="-10 0 1034 1024">
   <path fill="currentColor"
d="M75 177v850h850v-850h-850zM722 562q39 0 66.5 15t46.5 49l-62 40q-10 -18 -22 -26t-29 -8t-27.5 9.5t-10.5 24.5q0 17 11 28q10 9 38 21l20 8q55 24 78 49q28 30 28 77q0 52 -38 82q-36 29 -95 29q-53 0 -91 -23q-35 -22 -54 -59l65 -37q14 23 31 35q20 13 48 13
q24 0 39 -11t15 -29t-15 -30q-11 -8 -43 -22l-20 -9q-48 -20 -70 -45q-26 -29 -26 -75t32 -76t85 -30zM458 567h80v273q0 60 -34 91q-31 29 -86 29q-45 0 -77 -21q-27 -19 -43 -52l66 -39q11 21 20 29q12 12 31 12q21 0 31 -10q12 -12 12 -40v-272z" />
</svg>
