<?xml version="1.0" standalone="no"?>
<!DOCTYPE svg PUBLIC "-//W3C//DTD SVG 1.1//EN" "http://www.w3.org/Graphics/SVG/1.1/DTD/svg11.dtd" >
<svg xmlns="http://www.w3.org/2000/svg" xmlns:xlink="http://www.w3.org/1999/xlink" version="1.1" viewBox="-10 0 1034 1024">
   <path fill="currentColor"
d="M278 256q-95 0 -127.5 28t-32.5 113v92q0 57 -20 79t-74 22h-24v55h24q53 0 73.5 22t20.5 80v92q0 84 32.5 112.5t127.5 28.5h25v-55h-27q-54 0 -70 -16.5t-16 -71.5v-95q0 -59 -17.5 -86.5t-59.5 -37.5q42 -10 59.5 -37t17.5 -87v-95q0 -55 16 -71.5t70 -16.5h27v-55
h-25zM697 256v55h27q53 0 69.5 16.5t16.5 71.5v95q0 60 17 87t60 37q-42 10 -59.5 37t-17.5 87v95q0 55 -16.5 71.5t-69.5 16.5h-27v55h24q95 0 127 -28.5t32 -112.5l1 -92q-1 -58 20 -80t75 -22h24v-55h-24q-54 0 -75 -22t-20 -79v-92q-1 -85 -33 -113t-127 -28h-24z
M617 341q-27 0 -51 14t-37 39q-16 31 -11 64l-1 -2v5q-1 6 -5 13q-5 10 -16 21q-13 13 -35 26q-38 24 -68 24q-14 0 -21 -5v0l2 3l-6 -3q-37 -20 -77 -7.5t-60 49.5t-7.5 77t49.5 60q27 14 57.5 11t53.5 -22l-1 2l5 -3q6 -2 15 -2q12 0 27 4q18 5 41 17q33 18 48 39
q10 13 11 26q-1 28 13.5 53.5t40.5 39.5q37 19 77 7t60 -49t7.5 -77.5t-49.5 -59.5q-5 -3 -10 -5h2l-3 -3q-5 -4 -8 -11q-6 -11 -9 -25q-4 -19 -4.5 -44t2.5 -44q3 -15 8 -26q3 -7 8 -12l3 -3h-3q28 -14 43 -43q20 -37 7.5 -77t-49.5 -60q-23 -12 -49 -11zM619 357
q27 0 46 17v0q-10 -9 -31 -7t-41 15q6 6 6 14.5t-5.5 15t-14.5 6.5q-3 0 -6 -1h-1q-9 -3 -15 6q-10 19 -11 37t8 29q-19 -21 -18 -51t22 -53q13 -14 29 -21t32 -7zM550 524q7 0 11 2l10 6q9 4 19 7q21 20 23 81q0 36 -8 59q-6 15 -15 23q-14 6 -25 16q-10 3 -25 1
q-24 -4 -56 -21q-34 -19 -51 -38q-10 -12 -11 -22q1 -13 -2 -26l1 1v-5q1 -5 5 -12q6 -9 17 -19q13 -13 34 -26q42 -26 70 -27h3zM323 548q27 0 46 17h-1q-10 -9 -30.5 -7t-40.5 15q5 6 5.5 14t-5.5 14.5t-15 7.5q-2 0 -5 -1h-2q-8 -3 -15 6q-9 18 -10 36.5t8 28.5
q-20 -20 -19 -50t23 -53q12 -14 28 -21t33 -7zM637 709q27 0 46 17h-1q-10 -9 -30.5 -6.5t-40.5 15.5q5 5 5.5 13.5t-5.5 15t-15 6.5h-5l-2 -1q-8 -2 -15 6q-10 19 -10.5 37t8.5 29q-20 -21 -19 -50.5t23 -53.5q12 -13 28 -20.5t33 -7.5z" />
</svg>
