<?xml version="1.0" standalone="no"?>
<!DOCTYPE svg PUBLIC "-//W3C//DTD SVG 1.1//EN" "http://www.w3.org/Graphics/SVG/1.1/DTD/svg11.dtd" >
<svg xmlns="http://www.w3.org/2000/svg" xmlns:xlink="http://www.w3.org/1999/xlink" version="1.1" viewBox="-10 0 1034 1024">
   <path fill="currentColor"
d="M854 175q-27 0 -46 19t-19 45.5t18.5 45t45 18.5t45.5 -18.5t19 -45t-18.5 -45.5t-44.5 -19zM205 192l-34 34q-83 83 -88 154t68 144l82 82q45 46 48.5 78t-33.5 69v0q-16 19 -15.5 44.5t18.5 43.5t43.5 18.5t44.5 -15.5l1 1q25 -25 47 -32t45.5 4.5t53.5 41.5l95 96
q75 74 147.5 70t155.5 -87l33 -34l-71 -72l-18 18q-47 47 -84 47.5t-82 -44.5l-112 -112q-86 -86 -169 -17l-11 -11q35 -42 31.5 -83t-45.5 -82l-100 -101q-31 -31 -40.5 -56.5t1 -51.5t42.5 -59l17 -17zM703 326q-28 0 -46.5 19t-18.5 45.5t18.5 45.5t45 19t45.5 -19
t19 -45.5t-18.5 -45t-44.5 -19.5zM551 477q-27 0 -46 19t-19 45.5t19 45.5t45.5 19t45.5 -19t19 -45.5t-19 -45t-45 -19.5z" />
</svg>
