<?xml version="1.0" standalone="no"?>
<!DOCTYPE svg PUBLIC "-//W3C//DTD SVG 1.1//EN" "http://www.w3.org/Graphics/SVG/1.1/DTD/svg11.dtd" >
<svg xmlns="http://www.w3.org/2000/svg" xmlns:xlink="http://www.w3.org/1999/xlink" version="1.1" viewBox="-10 0 1034 1024">
   <path fill="currentColor"
d="M500 176q-115 0 -214 58q-97 57 -153 153q-58 99 -58 214.5t58 214.5q56 96 153 152q99 58 214 58t214 -58q97 -56 153 -152q58 -99 58 -214.5t-58 -214.5q-56 -96 -152 -153q-100 -58 -215 -58zM502 241q99 0 184 50q83 48 131 131q50 84 50 183t-50 184
q-48 83 -131 131q-85 50 -183.5 50t-183.5 -50q-83 -48 -131 -131q-50 -85 -50 -184t50 -183q48 -83 131 -131q85 -50 183 -50zM719 362v0h-192v67h17q15 0 18.5 2.5t3.5 7.5q0 2 -2 5t-11 13l-134 140v-129q0 -19 3.5 -26t10.5 -11q4 -2 25 -2h13v-67h-210v67h18
q16 0 22 3.5t9 10.5t3 29v263q0 23 -2.5 29.5t-9 10t-24.5 3.5h-16v67h210v-67h-17q-18 0 -23.5 -3t-8.5 -10t-3 -25v-48l65 -64l75 121q10 16 10 20t-5 6.5t-29 2.5h-9v67h217v-67h-8q-18 0 -28 -7q-7 -4 -23 -28l-124 -188l104 -101q13 -12 20 -17t12 -6.5t19 -1.5l24 -1
v-66h-20z" />
</svg>
