<?xml version="1.0" standalone="no"?>
<!DOCTYPE svg PUBLIC "-//W3C//DTD SVG 1.1//EN" "http://www.w3.org/Graphics/SVG/1.1/DTD/svg11.dtd" >
<svg xmlns="http://www.w3.org/2000/svg" xmlns:xlink="http://www.w3.org/1999/xlink" version="1.1" viewBox="-10 0 1034 1024">
   <path fill="currentColor"
d="M500 120q-122 0 -227 56q-102 55 -162 149q-61 96 -61 208.5t61 208.5q60 94 162 148q105 57 227 57q83 0 161 -27q4 -2 8.5 -0.5t7.5 5.5q28 38 70 64t92 37q6 1 9 -4.5t0 -9.5q-26 -33 -34 -73.5t2.5 -80t38.5 -70.5v0q45 -54 70 -118q25 -66 25 -137q0 -112 -61 -208
q-60 -94 -162 -149q-105 -56 -227 -56zM499 312q5 0 8.5 2.5t4.5 6.5l48 137l146 3q9 0 12 9t-5 15l-115 88l42 139q2 9 -5.5 14.5t-15.5 0.5l-119 -84l-119 84q-8 5 -15.5 -0.5t-5.5 -14.5l42 -139l-115 -88q-8 -6 -5 -15t12 -9l146 -3l47 -137q3 -9 12 -9z" />
</svg>
