<?xml version="1.0" standalone="no"?>
<!DOCTYPE svg PUBLIC "-//W3C//DTD SVG 1.1//EN" "http://www.w3.org/Graphics/SVG/1.1/DTD/svg11.dtd" >
<svg xmlns="http://www.w3.org/2000/svg" xmlns:xlink="http://www.w3.org/1999/xlink" version="1.1" viewBox="-10 0 1034 1024">
   <path fill="currentColor"
d="M500 227q-78 0 -151 29q-74 31 -131.5 88.5t-88.5 131.5q-29 73 -29 151t29 150q31 75 88.5 132.5t131.5 88.5q73 29 151 29t151 -29q74 -31 131.5 -88.5t88.5 -131.5q29 -73 29 -151t-29 -151q-31 -74 -88.5 -131.5t-131.5 -88.5q-73 -29 -151 -29zM500 302
q65 0 124.5 24.5t105.5 70.5t70.5 105.5t24.5 124.5t-24.5 124.5t-70.5 105.5t-105.5 70.5t-124.5 24.5t-124.5 -24.5t-105.5 -70.5q-62 -63 -84 -148q-22 -82 0 -164q22 -85 84 -148q46 -46 105.5 -70.5t124.5 -24.5zM554 397l47 49l-46 -49h-1zM316 400v12v442h368v-318
l-4 -4l-125 -132h-239zM341 425h204l5 5v109h-1v3h70l-45 -2h79l6 6v283h-318v0h317l-3 -191v189h-312v-397h-2v-5zM545 430q2 2 3 10v-10h-3zM685 535v159v160h2v-318zM520 549l31 94l-31 -94v0zM448 550l-85 253q0 1 2 1h55l-4 1h7l4 -10l-3 5l13 -43h93l13 46
q-1 -1 -2 -4l-1 -2l2 10h11h-1q-5 -2 -7 -3h56l-6 2q9 -1 9 -2l-13 -40l10 33l-83 -247h-70zM483 609l31 102h-62zM439 760v1l21 -1h-21z" />
</svg>
