<?xml version="1.0" standalone="no"?>
<!DOCTYPE svg PUBLIC "-//W3C//DTD SVG 1.1//EN" "http://www.w3.org/Graphics/SVG/1.1/DTD/svg11.dtd" >
<svg xmlns="http://www.w3.org/2000/svg" xmlns:xlink="http://www.w3.org/1999/xlink" version="1.1" viewBox="-10 0 1034 1024">
   <path fill="currentColor"
d="M500 227q-109 0 -202 55q-90 53 -143 143q-55 94 -55 202.5t55 201.5q53 91 143 144q93 54 202 54t202 -54q90 -53 143 -144q55 -93 55 -201.5t-55 -202.5q-53 -90 -143 -143q-93 -55 -202 -55zM500 302q33 0 73 10q72 16 129.5 62t89.5 110q33 68 33 143q0 88 -44 164
q-44 74 -117 117q-76 44 -164 44t-164 -44q-73 -43 -117 -117q-44 -76 -44 -164t44 -164q44 -73 117 -116q76 -45 164 -45zM477 432v2h3v105l-17 -50q2 2 4 5l-4 -10h-11l2 1h-77l-104 312h73l4 -12l-2 2l15 -46h112l17 56h61l13 1l-2 -8l-1 2l-15 -47h53q57 0 84 -22
q10 -8 17 -18l2 -4l5 -14v-3q4 -15 4 -28q0 -30 -12.5 -50t-36.5 -28q19 -8 28.5 -23.5t9.5 -38.5q0 -19 -6 -34l-1 -4q-9 -24 -36 -36l-7 -1l8 3q-9 -3 -19 -6l11 3q-7 -3 -18 -4q-17 -4 -44 -4h-31zM662 445q1 0 1 1l4 2q5 2 8 5q-6 -5 -13 -8zM495 448h95q54 0 76 16
t22 52q-1 19 -8.5 31.5t-20.5 18.5q-10 4 -10 13q0 4 3 8t7 5q19 6 29.5 22.5t10.5 41.5q0 38 -23 56.5t-74 18.5h-59l-48 -148v-135zM542 472h-1h-1l-2 1q-1 2 -1 3v69q0 3 1.5 5t3.5 2h44q21 0 32.5 -10t11.5 -30t-11.5 -30t-32.5 -10h-44zM552 486h34q15 0 22.5 6.5
t7.5 19.5t-7.5 19.5t-22.5 6.5h-34v-52zM420 558l37 125h-76zM540 608h-1h-1l-2 2l-2 4v77q0 3 2.5 5t4.5 2h50l3 -2q25 -1 36 -9q15 -13 15 -34.5t-15 -33t-41 -11.5h-49zM549 622h40q22 0 31.5 7.5t9.5 23t-9 23t-30 7.5h-42v-61z" />
</svg>
