<?xml version="1.0" standalone="no"?>
<!DOCTYPE svg PUBLIC "-//W3C//DTD SVG 1.1//EN" "http://www.w3.org/Graphics/SVG/1.1/DTD/svg11.dtd" >
<svg xmlns="http://www.w3.org/2000/svg" xmlns:xlink="http://www.w3.org/1999/xlink" version="1.1" viewBox="-10 0 1034 1024">
   <path fill="currentColor"
d="M500 228q-78 0 -151 29q-74 30 -131.5 87.5t-88.5 132.5q-29 72 -29 150.5t29 150.5q31 75 88.5 132.5t131.5 87.5q73 30 151 30t151 -30q74 -30 131.5 -87.5t88.5 -132.5q29 -72 29 -150.5t-29 -150.5q-31 -75 -88.5 -132.5t-131.5 -87.5q-73 -29 -151 -29zM500 303
q65 0 124.5 24.5t105.5 70.5t70.5 105.5t24.5 124.5t-24.5 124t-70.5 105t-105.5 71t-124.5 25t-124.5 -24.5t-105.5 -70.5q-62 -62 -84 -147q-22 -83 0 -166q22 -85 84 -147q46 -46 105.5 -70.5t124.5 -24.5zM469 406v73q-30 5 -47 21q-26 24 -26 67q0 34 19 55
q17 19 54 29l3 2l26 6q24 6 32 13l1 2q7 7 7 18.5t-7 19.5l-4 5q-12 7 -34 7q-11 0 -24 -2h-2q-13 -3 -19 -5q-24 -7 -50 -22v63q25 10 51 16q7 1 20 3v72h62v-73q30 -5 46 -20q26 -24 26 -72q0 -37 -18 -56q-16 -18 -54 -28l-37 -9q-16 -4 -25 -10l-3 -1q-8 -7 -8 -18
q0 -15 11 -23l1 -1q11 -7 35 -7q14 0 26 3l13 3q23 6 42 16v-62q-25 -8 -47 -11l-8 -1v-73h-62zM337 449q-16 47 -24 91.5t-8 86.5t8 86t24 92h31q-14 -49 -20 -91q-7 -47 -7 -87.5t7 -87.5q6 -42 20 -90h-31zM634 449q14 49 20.5 90.5t6.5 87t-6 87t-21 91.5h31
q16 -48 23.5 -92t7.5 -86t-7.5 -86t-23.5 -92h-31z" />
</svg>
