<?xml version="1.0" standalone="no"?>
<!DOCTYPE svg PUBLIC "-//W3C//DTD SVG 1.1//EN" "http://www.w3.org/Graphics/SVG/1.1/DTD/svg11.dtd" >
<svg xmlns="http://www.w3.org/2000/svg" xmlns:xlink="http://www.w3.org/1999/xlink" version="1.1" viewBox="-10 0 1034 1024">
   <path fill="currentColor"
d="M501 178q-103 0 -197 46q-51 25 -104 78.5t-79 107.5q-46 94 -46 194t44.5 189t126.5 151q36 27 86 49t93 30q14 2 42 3t54 0q109 -4 200 -59q89 -53 143 -141q55 -91 60 -199q3 -62 -7 -112t-36.5 -104.5t-79.5 -108t-104 -78.5q-94 -46 -196 -46zM694 304q22 -1 43 8.5
t37 26.5q9 10 10 28q2 21 -4 70q-6 43 -21 144q-15 92 -20 130q-6 48 -5 68t9.5 23t27.5 -4q14 -4 18 -2.5t-3 8t-23 15.5q-62 36 -75 12q-6 -11 -6 -27q0 -19 5 -63q5 -39 20 -134q13 -85 18 -122q6 -47 6.5 -70t-3.5 -36q-4 -10 -14 -21q-15 -15 -37.5 -18.5t-40.5 6
t-33 47.5t-22 90l-4 31h52q21 0 37 1.5t17.5 4t-3 9t-12.5 13.5q-12 10 -18.5 12t-13.5 -2q-5 -2 -16 -4t-21 -2h-25l-12 105q-10 95 -21 147q-11 55 -29 92q-16 33 -47 67q-12 14 -22.5 24t-13.5 10q-9 0 -8.5 -8.5t11.5 -19.5q21 -21 34 -51t24 -83q10 -50 20 -140
q16 -138 16 -140.5t-24 -2.5q-11 0 -19.5 -1.5t-10.5 -3.5t5.5 -9t19.5 -12.5t20 -5.5t12 -8t9 -35q22 -117 116 -159q19 -8 40 -8zM348 510q26 0 47.5 13t33.5 39q10 19 12 34t0 49q-3 62 -32 109.5t-78 71.5q-28 14 -43 15.5t-36 -8.5q-35 -15 -52.5 -53.5t-12.5 -90.5
q6 -71 49 -119q25 -29 54.5 -44.5t57.5 -15.5zM321 546q-71 0 -88 123q-5 32 6 67t30 51q30 25 60 13.5t49 -51.5t19 -96q0 -33 -11 -62.5t-26 -37.5q-6 -3 -17.5 -5t-21.5 -2z" />
</svg>
