<?xml version="1.0" standalone="no"?>
<!DOCTYPE svg PUBLIC "-//W3C//DTD SVG 1.1//EN" "http://www.w3.org/Graphics/SVG/1.1/DTD/svg11.dtd" >
<svg xmlns="http://www.w3.org/2000/svg" xmlns:xlink="http://www.w3.org/1999/xlink" version="1.1" viewBox="-10 0 1034 1024">
   <path fill="currentColor"
d="M635 241q-8 0 -68 29q-25 12 -53.5 28t-43.5 26q-20 14 -27 17q-10 4 -22 2q-8 -2 -34 -11v0q-19 -7 -34.5 -11t-18 -2.5t-4 9.5t-1.5 18q0 23 -11 75q-5 22 -18 59t-28 70q-36 77 -44 103q-4 12 -5.5 33.5t-0.5 44.5q2 30 7 49t18 45q9 18 26 40.5t31 37t33.5 31
t32.5 25.5q31 21 77 44.5t54 23.5q4 0 21 -7.5t37.5 -18t47.5 -27.5t43.5 -30.5t36.5 -33t31 -33.5q26 -35 36 -55q5 -9 10.5 -28.5t8.5 -38.5q5 -26 5 -45t-5 -48q-8 -48 -44 -125q-15 -32 -31.5 -74t-25 -68.5t-16 -58.5t-9.5 -51q-2 -26 -7 -38v0q3 0 4 -0.5t0 -1.5t-5 0
q-2 -4 -4 -4z" />
</svg>
