<?xml version="1.0" standalone="no"?>
<!DOCTYPE svg PUBLIC "-//W3C//DTD SVG 1.1//EN" "http://www.w3.org/Graphics/SVG/1.1/DTD/svg11.dtd" >
<svg xmlns="http://www.w3.org/2000/svg" xmlns:xlink="http://www.w3.org/1999/xlink" version="1.1" viewBox="-10 0 1034 1024">
   <path fill="currentColor"
d="M500 203q-116 0 -215 58q-96 57 -152 153q-58 99 -58 214q0 89 35 170q34 78 96 137t142 90l45 -119q46 -121 53 -131l-10 -4q-13 -5 -25 -15q-16 -12 -29 -31q-15 -23 -24 -53q-9 -36 -9 -82q2 -72 35 -135q23 -46 60 -82q19 -18 32 -27v0l-2 20q-1 25 4 48q6 32 22 56
q19 30 53 46l15 6q18 8 32 20q21 16 33 37q14 27 14 60q-2 62 -36 99q-20 22 -56 38q10 14 92 235l5 13q80 -30 142 -89t96 -138q35 -80 35 -169q0 -115 -58 -214q-57 -96 -153 -153q-99 -58 -214 -58z" />
</svg>
