<?xml version="1.0" standalone="no"?>
<!DOCTYPE svg PUBLIC "-//W3C//DTD SVG 1.1//EN" "http://www.w3.org/Graphics/SVG/1.1/DTD/svg11.dtd" >
<svg xmlns="http://www.w3.org/2000/svg" xmlns:xlink="http://www.w3.org/1999/xlink" version="1.1" viewBox="-10 0 1034 1024">
   <path fill="currentColor"
d="M271 227q-47 0 -86 23t-62 62.5t-23 85.5v459q0 46 23 85t62 62t86 23h458q47 0 86 -23t62 -62t23 -85v-459q0 -46 -23 -85.5t-62 -62.5t-86 -23h-458zM500 388q72 0 132 39q8 6 13 14.5t5 18.5q0 16 -11 27.5t-27 11.5q-12 0 -22 -7v0q-41 -27 -90 -27
q-57 0 -100.5 34.5t-56.5 88.5l-1 4q-4 11 -14 18.5t-23 8.5h-129v-77h100q26 -69 87 -111.5t137 -42.5zM500 534q38 0 65 27t27 65t-27 65t-65 27t-65.5 -27t-27.5 -65t27.5 -65t65.5 -27zM695 634h129v77h-101q-26 68 -87 111t-136 43q-72 0 -132 -40q-17 -12 -17 -32
q0 -16 11 -27.5t27 -11.5q12 0 22 7q40 27 89 27q56 0 100 -35t57 -88v0l1 -4q3 -11 13.5 -19t23.5 -8v0z" />
</svg>
