<?xml version="1.0" standalone="no"?>
<!DOCTYPE svg PUBLIC "-//W3C//DTD SVG 1.1//EN" "http://www.w3.org/Graphics/SVG/1.1/DTD/svg11.dtd" >
<svg xmlns="http://www.w3.org/2000/svg" xmlns:xlink="http://www.w3.org/1999/xlink" version="1.1" viewBox="-10 0 1034 1024">
   <path fill="currentColor"
d="M585 286l-121 60v606q-69 -9 -124.5 -35.5t-87 -65t-31.5 -83.5q0 -42 28.5 -79.5t79 -63.5t113.5 -37v-77q-97 11 -175 48t-122 91q-45 55 -45 118q0 65 49 122q47 55 130 91.5t185 45.5l121 -57v-684zM606 511v77q71 12 125 43l-65 37l234 51l-17 -173l-62 35
q-91 -55 -215 -70z" />
</svg>
