<?xml version="1.0" standalone="no"?>
<!DOCTYPE svg PUBLIC "-//W3C//DTD SVG 1.1//EN" "http://www.w3.org/Graphics/SVG/1.1/DTD/svg11.dtd" >
<svg xmlns="http://www.w3.org/2000/svg" xmlns:xlink="http://www.w3.org/1999/xlink" version="1.1" viewBox="-10 0 1034 1024">
   <path fill="currentColor"
d="M500 175q-115 0 -215 58q-96 56 -152 153q-58 99 -58 214q0 108 52 203q49 92 136 150q89 60 195 70v0q0 -113 -58 -224q-37 -71 -90 -130l-4 -7q-5 -8 -6 -17q-2 -12 2 -23l79 -200l5 -9q6 -11 15 -18q12 -9 27 -9h144q15 0 27 9q9 7 15 18l5 9l79 200q4 11 2 23
q-1 9 -6 17l-4 7q-53 59 -90 130q-58 111 -58 224v0q106 -10 195 -70q87 -58 136 -150q52 -95 52 -203q0 -115 -58 -214q-56 -97 -152 -153q-100 -58 -215 -58zM500 533q-28 0 -47.5 19.5t-19.5 47.5q0 24 15 42.5t38 23.5v359h28v-359q23 -5 38 -23.5t15 -42.5
q0 -28 -19.5 -47.5t-47.5 -19.5z" />
</svg>
