<?xml version="1.0" standalone="no"?>
<!DOCTYPE svg PUBLIC "-//W3C//DTD SVG 1.1//EN" "http://www.w3.org/Graphics/SVG/1.1/DTD/svg11.dtd" >
<svg xmlns="http://www.w3.org/2000/svg" xmlns:xlink="http://www.w3.org/1999/xlink" version="1.1" viewBox="-10 0 1034 1024">
   <path fill="currentColor"
d="M272 226q-47 0 -86.5 23t-62.5 62.5t-23 86.5v456q0 47 23 86.5t62.5 62.5t86.5 23h456q47 0 86.5 -23t62.5 -62.5t23 -86.5v-456q0 -47 -23 -86.5t-62.5 -62.5t-86.5 -23h-456zM414 289q64 0 117 30h1v0q60 32 95.5 91.5t34.5 127.5v1q1 68 -35 128l211 210l-87 87
l-210 -210q-31 18 -65 27h-2v0q-44 12 -90 6t-87 -27q-63 -32 -98 -91v0l-1 -1v0q-29 -47 -34.5 -102t12 -107.5t55.5 -91.5l1 -1q35 -38 83 -57.5t99 -19.5zM414 364q-36 0 -70 14t-58 39l-1 1q-26 27 -38 64t-8 76.5t24 70.5v1q24 41 69 64q29 15 61.5 19t62.5 -5h1
q36 -9 66 -34.5t47.5 -61.5t17.5 -73v-1q0 -46 -25.5 -88.5t-66.5 -64.5l-1 -1q-36 -20 -81 -20z" />
</svg>
