<?xml version="1.0" standalone="no"?>
<!DOCTYPE svg PUBLIC "-//W3C//DTD SVG 1.1//EN" "http://www.w3.org/Graphics/SVG/1.1/DTD/svg11.dtd" >
<svg xmlns="http://www.w3.org/2000/svg" xmlns:xlink="http://www.w3.org/1999/xlink" version="1.1" viewBox="-10 0 1034 1024">
   <path fill="currentColor"
d="M500 292q-77 0 -148 30q-68 30 -119.5 84t-77.5 123h-155v119h200q19 -1 34.5 -12.5t21.5 -28.5l1 -7q13 -54 48.5 -97.5t86 -68t108.5 -24.5q77 0 140 43v0q15 10 33 10q24 0 41.5 -17.5t17.5 -42.5q0 -15 -7.5 -29t-21.5 -21q-92 -61 -203 -61zM500 517
q-39 0 -71.5 19.5t-52 52t-19.5 71t19.5 71.5t52 52t71.5 19t71.5 -19t52 -52t19.5 -71.5t-19.5 -71t-52 -52t-71.5 -19.5zM801 671v0q-20 0 -36 12.5t-21 29.5l-1 6v0q-13 54 -48.5 97.5t-86 68t-108.5 24.5q-75 0 -137 -41q-15 -10 -34 -10q-24 0 -41.5 17t-17.5 42
q0 15 7 28t19 21v0q93 61 204 61q77 0 148 -30q68 -30 119.5 -84t77.5 -123h155v-119h-199z" />
</svg>
