<?xml version="1.0" standalone="no"?>
<!DOCTYPE svg PUBLIC "-//W3C//DTD SVG 1.1//EN" "http://www.w3.org/Graphics/SVG/1.1/DTD/svg11.dtd" >
<svg xmlns="http://www.w3.org/2000/svg" xmlns:xlink="http://www.w3.org/1999/xlink" version="1.1" viewBox="-10 0 1034 1024">
   <path fill="currentColor"
d="M271 226q-47 0 -86 23t-62 62.5t-23 85.5v459q0 46 23 85.5t62 62t86 22.5h458q47 0 86 -22.5t62 -62t23 -85.5v-459q0 -46 -23 -85.5t-62 -62.5t-86 -23h-458zM502 336q78 0 146 40q66 39 104 104q40 68 40 147t-40 146q-38 66 -104 105q-68 40 -146.5 40t-146.5 -40
q-66 -39 -104 -105q-40 -67 -40 -146t40 -147q38 -65 104 -104q68 -40 147 -40zM502 424q-56 0 -102.5 27.5t-74 74t-27.5 101.5t27.5 101.5t74 74t102 27.5t102 -27.5t74 -74t27.5 -101.5t-27.5 -101.5t-74 -74t-101.5 -27.5zM502 562q29 0 50 21t21 50.5t-21 50.5
t-50.5 21t-50.5 -21t-21 -50.5t21 -50.5t51 -21z" />
</svg>
