<?xml version="1.0" standalone="no"?>
<!DOCTYPE svg PUBLIC "-//W3C//DTD SVG 1.1//EN" "http://www.w3.org/Graphics/SVG/1.1/DTD/svg11.dtd">
<svg xmlns="http://www.w3.org/2000/svg" viewBox="-10 0 1034 1024">
  <g transform="translate(43.00, 0.00) scale(2.000000)" fill="currentColor">
    <path d="M464.829805,385.551729 C470.12102,371.174246 470.377047,358.080467 465.597884,346.270391 C461.160091,335.316119 452.625872,326.073451 439.995229,318.542389 C428.218007,311.695968 413.965863,306.732313 397.238794,303.651424 C382.047885,300.912856 365.491502,299.714732 347.569643,300.057054 C330.330521,300.570535 313.603453,302.453301 297.388438,305.70535 C281.85616,308.9574 268.201411,313.065252 256.424189,318.028907 C244.817652,322.992562 235.771381,328.384118 229.285374,334.203575 C222.799368,340.365354 219.385681,346.698293 219.044312,353.202392 C218.532259,360.904615 222.458,369.2059 230.821534,378.106246 C238.50233,386.321951 249.255446,394.366495 263.08088,402.239878 C276.906314,410.113262 292.182565,416.874102 308.909633,422.522399 C326.831492,428.513017 344.497324,432.364128 361.90713,434.075733 C373.172298,435.102696 383.669387,435.273857 393.398396,434.589215 C403.980827,433.562252 413.795178,431.337165 422.84145,427.913955 C432.570459,424.148424 440.848651,418.928028 447.676026,412.252768 C455.356822,404.892866 461.074749,395.99252 464.829805,385.551729 M357.810705,345.243428 C363.613973,348.324317 367.881083,352.089849 370.612033,356.540022 C373.342983,361.503677 373.940378,367.151974 372.404219,373.484913 C371.209428,377.935086 369.246558,381.786197 366.515608,385.038247 C363.955342,387.947976 360.541655,390.258643 356.274546,391.970248 C352.690174,393.510692 348.337722,394.623236 343.217191,395.307878 C338.267345,395.821359 333.317498,395.906939 328.367651,395.564618 C319.662748,395.051137 310.104424,393.339532 299.692677,390.429803 C290.646405,387.691235 281.941503,384.268025 273.577968,380.160172 C265.897172,376.394641 259.58185,372.457949 254.632003,368.350097 C249.852841,364.071084 247.548602,360.305553 247.719286,357.053504 C248.060655,354.314935 250.023525,351.661947 253.607897,349.09454 C257.192269,346.698293 262.142116,344.558786 268.457437,342.676021 C274.772759,340.622094 281.770818,339.08165 289.451615,338.054687 C298.156518,337.027724 306.43471,336.514242 314.286191,336.514242 C322.991093,336.685403 330.842574,337.370045 337.840634,338.568168 C345.350746,340.108613 352.007436,342.3337 357.810705,345.243428 Z M336.930331,76.8108822 C336.249123,58.3639725 331.650971,42.9915478 323.135874,30.693608 C314.109871,17.2000352 300.826319,7.97658038 283.285219,3.02324353 C279.368275,1.82761049 275.195877,0.973586899 270.768027,0.461172742 C266.851082,-0.0512414157 262.848986,-0.136643775 258.76174,0.204965663 C255.015097,0.204965663 251.268454,0.631977461 247.521812,1.48600106 C244.286075,2.16921993 240.709734,3.27945061 236.792789,4.81669308 C224.190446,9.77002993 212.780216,18.4810706 202.562099,30.9498151 C193.02519,42.2229266 184.850697,56.2289135 178.038619,72.967776 C172.078051,87.1445677 167.309597,102.687797 163.733256,119.597464 C160.327218,135.482303 158.028141,151.623349 156.836028,168.020602 C155.814216,182.880613 155.729065,197.142807 156.580575,210.807184 C157.602386,224.300757 159.475708,236.513295 162.200539,247.444797 C167.650201,269.820215 175.994996,283.569995 187.234924,288.694136 C188.256736,289.20655 189.278548,289.633562 190.300359,289.975172 L196.942135,291 C197.793645,291 199.070909,290.914598 200.773929,290.743793 C207.92661,290.060574 216.015952,287.071491 225.041955,281.776545 C233.727354,276.481599 242.838508,269.222398 252.375417,259.998943 C262.593533,250.09227 272.471046,238.562951 282.007955,225.410988 C292.055769,211.74661 300.996621,197.313612 308.830511,182.111992 C318.026815,164.177496 325.094346,146.58461 330.033102,129.333333 C335.142161,110.37401 337.441237,92.8665258 336.930331,76.8108822 M239.602771,118.316429 C241.305791,118.658038 242.753357,119.08505 243.945471,119.597464 C257.739928,124.379996 264.807459,135.396901 265.148063,152.648177 C265.318365,166.824969 260.975665,183.13682 252.119964,201.58373 C244.796981,216.956154 236.026431,230.449727 225.808314,242.064448 C216.271405,252.99595 208.267214,258.80331 201.79574,259.486529 L200.518476,259.742736 L198.2194,259.486529 L196.942135,258.974115 C192.173681,256.753654 188.852793,249.494453 186.979471,237.196513 C185.10615,224.727769 185.191301,210.465575 187.234924,194.409931 C189.44885,176.475436 193.621247,160.761402 199.752117,147.267829 C207.075101,131.212185 216.101103,121.732523 226.830126,118.828843 C228.703447,118.316429 230.065863,118.060222 230.917372,118.060222 C232.279788,117.889417 233.642203,117.804015 235.004619,117.804015 C236.367034,117.804015 237.899752,117.97482 239.602771,118.316429 Z M10.1915485,171.548064 C8.14220391,174.276273 6.4344167,177.26025 5.06818694,180.5 C3.53117846,184.421797 2.42111678,188.428853 1.7380019,192.521165 C-1.84835123,209.23144 0.115604057,225.430176 7.62986774,241.117373 C13.7779017,254.076362 23.6830674,266.268043 37.3453651,277.692414 C49.4706542,287.752682 63.1329518,295.937307 78.3322579,302.246288 C93.7023427,308.55527 107.108472,311.453991 118.550647,310.942452 C120.77077,310.942452 123.161672,310.686682 125.723353,310.175143 C128.285034,309.663604 130.419768,308.981552 132.127555,308.128987 C133.835342,307.276422 135.45774,306.168088 136.994748,304.803983 C138.531757,303.439879 139.727208,301.905262 140.581101,300.200132 C144.679791,292.356534 143.569729,280.25011 137.250916,263.880861 C130.761325,248.02315 120.941549,231.739158 107.791587,215.028883 C94.1292895,197.636555 79.8692664,183.910258 65.0115177,173.84999 C48.958318,163.10767 35.3814098,159.100615 24.280793,161.828823 C21.5483334,162.510875 18.9866526,163.704466 16.5957506,165.409596 C14.2048485,166.944213 12.0701145,168.990369 10.1915485,171.548064 M48.1044244,222.446199 C48.958318,220.911581 49.8122116,219.71799 50.6661052,218.865425 C51.5199988,218.01286 52.5446712,217.245552 53.7401222,216.5635 C55.106352,216.051961 56.301803,215.710935 57.3264753,215.540422 C62.7913944,214.517343 69.7079325,216.904526 78.0760898,222.701968 C85.5903535,227.646845 93.1046172,234.637879 100.618881,243.675069 C107.45003,251.859693 112.914949,259.873805 117.013638,267.717403 C120.941549,275.731515 122.137,281.358444 120.599991,284.598191 C120.258434,285.280244 119.831487,285.791783 119.319151,286.132809 C118.806815,286.814861 118.209089,287.241143 117.525974,287.411656 C117.184417,287.752682 116.501302,288.008452 115.47663,288.178965 L112.658781,288.690504 C107.193862,289.03153 100.106545,287.496913 91.39683,284.086652 C82.857894,280.676392 74.8312941,276.157797 67.3170304,270.530868 C59.2904306,264.562913 53.3131754,258.083418 49.3852648,251.092385 C44.9450181,243.078273 43.9203458,235.064161 46.3112479,227.05005 C46.823584,225.34492 47.4213095,223.810303 48.1044244,222.446199 Z M175.335913,380.011093 L174.314241,380.011093 C169.035604,379.840998 164.182663,381.626999 159.755418,385.369098 C155.668731,388.941102 152.178019,394.043964 149.283282,400.677684 C146.729102,406.631023 144.941176,413.349792 143.919505,420.833989 C142.897833,428.318187 142.727554,435.887432 143.408669,443.541725 C144.770898,459.700788 149.5387,473.393468 157.712074,484.619764 C167.247678,497.547014 180.529412,506.051784 197.557276,510.134074 L198.068111,510.134074 L199.600619,510.64436 L200.366873,510.64436 C218.927245,514.216364 231.357585,510.729408 237.657895,500.183493 C240.552632,495.250726 242,488.957197 242,481.302904 C241.829721,473.988802 240.467492,465.994318 237.913313,457.319452 C235.359133,448.474492 231.783282,439.629531 227.185759,430.78457 C222.588235,421.769514 217.394737,413.604935 211.605263,406.290832 C205.475232,398.636539 199.345201,392.513105 193.21517,387.920529 C186.744582,383.157858 180.78483,380.521379 175.335913,380.011093 M168.184211,411.648838 C170.908669,404.16464 174.399381,400.592637 178.656347,400.932827 L178.911765,400.932827 C183.168731,401.443114 188.19195,405.865594 193.981424,414.200269 C199.770898,422.534943 204.113003,431.294856 207.00774,440.480008 C210.243034,450.515636 210.924149,458.51012 209.051084,464.463459 C206.837461,470.756989 201.388545,473.30842 192.704334,472.117752 L192.448916,472.117752 L192.193498,471.862609 L191.427245,471.862609 C182.913313,470.161655 176.357585,465.739175 171.760062,458.595168 C167.843653,452.131543 165.630031,444.307154 165.119195,435.122003 C164.608359,426.106947 165.630031,418.282558 168.184211,411.648838 Z M112.41293,355.924658 C110.867258,354.726027 108.978103,353.69863 106.745464,352.842466 C104.512826,351.986301 102.194318,351.386986 99.789938,351.044521 C97.5572999,350.530822 95.1529204,350.188356 92.5767995,350.017123 C85.1919196,349.84589 77.9787812,350.958904 70.9373841,353.356164 C64.0677284,355.582192 58.4861331,358.921233 54.1925983,363.373288 C49.8990635,368.167808 47.8381668,373.476027 48.0099082,379.297945 C48.1816495,385.633562 51.1871239,392.482877 57.0263313,399.84589 C58.5720038,401.729452 60.4611591,403.784247 62.6937972,406.010274 C64.4112111,407.722603 66.3862372,409.263699 68.6188753,410.633562 C70.3362892,411.660959 72.2254445,412.60274 74.2863412,413.458904 C76.6907207,414.315068 78.579876,414.743151 79.9538072,414.743151 C86.1364973,415.599315 92.147446,414.315068 97.9866534,410.890411 C103.654119,407.636986 108.548749,403.013699 112.670542,397.020548 C116.964077,390.856164 119.626069,384.520548 120.656517,378.013699 C121.686966,370.821918 120.398905,364.914384 116.792336,360.291096 C115.418405,358.578767 113.958603,357.123288 112.41293,355.924658 M107.260689,366.455479 C108.806361,368.510274 109.149844,371.25 108.291137,374.674658 C107.604171,377.928082 106.058499,381.267123 103.654119,384.691781 C101.24974,387.945205 98.5018776,390.513699 95.4105325,392.39726 C92.147446,394.452055 88.9702303,395.308219 85.8788852,394.965753 L83.0451522,394.452055 C82.0147039,394.109589 81.0701262,393.59589 80.2114193,392.910959 C79.5244537,392.568493 78.579876,391.883562 77.3776863,390.856164 C76.6907207,390.171233 75.8320138,389.229452 74.8015654,388.030822 C71.7102203,384.092466 70.5080306,380.496575 71.1949962,377.243151 C71.5384789,374.332192 73.3417636,371.763699 76.60485,369.537671 C79.5244537,367.482877 83.0451522,365.941781 87.1669457,364.914384 C91.2887391,363.886986 95.2387911,363.458904 99.0171018,363.630137 L101.850835,363.886986 L104.169344,364.400685 C104.856309,364.743151 105.457404,365.085616 105.972628,365.428082 L107.260689,366.455479 Z" />
  </g>
</svg>
