<?xml version="1.0" standalone="no"?>
<!DOCTYPE svg PUBLIC "-//W3C//DTD SVG 1.1//EN" "http://www.w3.org/Graphics/SVG/1.1/DTD/svg11.dtd" >
<svg xmlns="http://www.w3.org/2000/svg" xmlns:xlink="http://www.w3.org/1999/xlink" version="1.1" viewBox="-10 0 1034 1024">
   <path fill="currentColor"
d="M495 226q-27 0 -54 5l-7 1l-49 116l-117 -48q-53 38 -90 89l-4 5l48 117l-117 48q-10 64 -1 126l2 7l116 49l-48 116q18 25 36 45l13 12q19 19 45 38l117 -49l48 117l7 1q63 10 126 0l49 -118l117 49l5 -4q52 -38 89 -90l-49 -117l117 -48l1 -7q10 -63 0 -126l-117 -49
l48 -116q-20 -28 -41 -49l-7 -7q-20 -19 -47 -39l-116 49l-48 -117q-36 -6 -72 -6zM500 325q11 0 22 1l51 123v0l124 -51l15 15q10 10 15 16l-51 123l1 1v0l123 51q2 21 0 44l-123 51v0v0l51 124q-14 16 -31 31l-123 -51h-1v0l-51 123q-21 1 -44 0l-51 -123v0v-1l-124 52
l-27 -27l-4 -4l51 -123v-1v0l-123 -51q-1 -23 0 -44l123 -51v0l-51 -124q15 -17 31 -31l123 51h1l51 -123q11 -1 22 -1zM500 450q-6 0 -13 1l-29 72l-73 -30l-18 18l30 72l-72 30v25l72 30l-30 73q8 9 19 18l71 -30l30 72q13 1 26 0l30 -72v0l72 30q9 -8 18 -18l-30 -72
l72 -30l1 -13l-1 -13l-72 -30l30 -72q-7 -9 -18 -18l-72 30l-30 -72zM500 577q20 0 34.5 14.5t14.5 34.5t-14.5 34t-34.5 14t-34 -14t-14 -34t14 -34.5t34 -14.5z" />
</svg>
