<?xml version="1.0" standalone="no"?>
<!DOCTYPE svg PUBLIC "-//W3C//DTD SVG 1.1//EN" "http://www.w3.org/Graphics/SVG/1.1/DTD/svg11.dtd" >
<svg xmlns="http://www.w3.org/2000/svg" xmlns:xlink="http://www.w3.org/1999/xlink" version="1.1" viewBox="-10 0 1034 1024">
   <path fill="currentColor"
d="M820 224q-1 4 -3 8q-3 11 -9 21q-7 14 -16 27q-12 16 -26 28q-17 14 -38 23q-23 10 -49 12q-30 3 -64 -4q-37 -7 -79 -26q-30 -14 -33 -16l-334 137l335 163l18 -7q23 -11 49 -24q58 -27 105 -73q40 -39 71 -90q26 -41 44 -87q14 -33 23 -66zM503 297h1v0h-1zM153 507
v348l312 169v-358zM847 507l-312 159v358l312 -169v-348z" />
</svg>
