<?xml version="1.0" standalone="no"?>
<!DOCTYPE svg PUBLIC "-//W3C//DTD SVG 1.1//EN" "http://www.w3.org/Graphics/SVG/1.1/DTD/svg11.dtd" >
<svg xmlns="http://www.w3.org/2000/svg" xmlns:xlink="http://www.w3.org/1999/xlink" version="1.1" viewBox="-10 0 1034 1024">
   <path fill="currentColor"
d="M500 176q-38 0 -69 21t-46 56q-10 23 -10 48q-17 -18 -40 -27q-35 -15 -71.5 -7.5t-64 34.5t-34.5 63.5t7 72.5q10 22 28 40q-25 0 -48 9q-36 15 -56.5 46t-20.5 69.5t20.5 69.5t56.5 45q23 10 47 10q-17 18 -27 40q-14 36 -7 72.5t34.5 63.5t64 34.5t71.5 -7.5
q23 -10 40 -27q0 25 10 48q15 35 46 55.5t69 20.5t69 -20.5t46 -55.5q10 -23 10 -48q17 17 40 27q35 15 71.5 7.5t64 -34.5t34.5 -63.5t-7 -72.5q-10 -23 -27 -40q24 0 47 -9q36 -15 56.5 -46t20.5 -69.5t-20.5 -69.5t-56.5 -46q-23 -9 -47 -9q17 -18 27 -40q14 -36 7 -72.5
t-34.5 -63.5t-64 -34.5t-71.5 7.5q-23 9 -41 27q1 -25 -9 -48q-15 -35 -46 -56t-69 -21zM500 233q20 0 37.5 12t25 30.5t3.5 38.5t-18 35v137l97 -97q0 -21 11.5 -38t30 -24.5t39 -3.5t34.5 18t18 34.5t-3.5 39.5t-24.5 30t-37 11l-98 98h138q14 -15 34 -19t39 4t30.5 25.5
t11.5 37t-11.5 37t-30 25t-39 3.5t-34.5 -18h-138l98 98q20 0 37 11t24.5 29.5t3.5 39.5t-18 35t-34.5 18t-39 -4t-30 -25t-11.5 -37l-97 -98v138q14 15 18 35t-3.5 38.5t-25 30t-37.5 11.5t-37.5 -11.5t-25 -30t-3.5 -38.5t18 -35v-138l-97 98q0 21 -11.5 37.5t-30 24.5
t-39 4t-34.5 -18t-18 -35t3.5 -39.5t24.5 -29.5t37 -11l98 -98h-138q-14 14 -34.5 18t-39 -3.5t-30 -25t-11.5 -37t11.5 -37t30.5 -25.5t39 -4t34 19h138l-98 -98q-20 0 -37 -11t-24.5 -30t-3.5 -39.5t18 -34.5t34.5 -18t39 3.5t30 24.5t11.5 38l97 97v-138q-14 -14 -18 -34
t3.5 -38.5t25 -30.5t37.5 -12z" />
</svg>
