<?xml version="1.0" standalone="no"?>
<!DOCTYPE svg PUBLIC "-//W3C//DTD SVG 1.1//EN" "http://www.w3.org/Graphics/SVG/1.1/DTD/svg11.dtd" >
<svg xmlns="http://www.w3.org/2000/svg" xmlns:xlink="http://www.w3.org/1999/xlink" version="1.1" viewBox="-10 0 1034 1024">
   <path fill="currentColor"
d="M132 177q-36 0 -60.5 24.5t-24.5 60t24.5 60.5t60.5 25h736q36 0 60.5 -25t24.5 -60.5t-24.5 -60t-60.5 -24.5h-736zM132 403q-36 0 -60.5 25t-24.5 60.5t24.5 60t60.5 24.5h628q35 0 60 -24.5t25 -60t-25 -60.5t-60 -25h-628zM129 630q-34 1 -58 25.5t-24 59.5t24.5 60
t60.5 25h700q35 0 60 -25t25 -60t-25 -60t-60 -25h-703zM132 857q-36 0 -60.5 24.5t-24.5 60t24.5 60.5t60.5 25h374q35 0 60 -25t25 -60.5t-25 -60t-60 -24.5h-374z" />
</svg>
