<?xml version="1.0" standalone="no"?>
<!DOCTYPE svg PUBLIC "-//W3C//DTD SVG 1.1//EN" "http://www.w3.org/Graphics/SVG/1.1/DTD/svg11.dtd" >
<svg xmlns="http://www.w3.org/2000/svg" xmlns:xlink="http://www.w3.org/1999/xlink" version="1.1" viewBox="-10 0 1034 1024">
   <path fill="currentColor"
d="M340 221l-5 1q-10 3 -12 7t-2 17l1 16l-10 2q-8 2 -9.5 1.5t-2.5 -4.5q-7 -17 -10 -23t-5.5 -6.5t-6.5 5.5q-5 7 -5 8t8 14l8 14l-7 6q-6 7 -8 7t-13 -9q-16 -14 -21 -14q-1 0 -1 11v10l14 8q13 7 12 10.5t-2 8.5l-2 6q-1 2 -17 0q-18 -3 -22 -0.5t4 13.5q2 4 4.5 4.5
t13.5 -0.5l16 -2l2 10q2 11 0.5 12t-13.5 5.5t-18 8.5l-5 3l5 4q8 6 12 6t15 -7l13 -8l9 9q4 5 3.5 7t-8.5 12l-3 4q-8 9 -9 13t0.5 5t8.5 1h11l7 -14q7 -14 10 -14t3.5 2t-0.5 7l-21 146h-14q-10 0 -12 -0.5t-2 -4.5q-1 -8 -2 -9t-5 1t-3 5t-1 4.5t-8 3.5q-11 4 -9 4.5
t11.5 -3.5t10.5 -2t-0.5 3t-6.5 2t-10.5 7.5t-7.5 12.5q-1 3 -0.5 4t2.5 0t2.5 0t-0.5 4l-1 6l13 -10v7q0 8 1.5 8.5t12.5 22.5q27 53 50 73q11 10 15.5 16.5t8.5 18.5q2 8 2.5 8.5t1.5 -3.5q1 -14 4 -10.5t4 20.5q1 12 3 15.5t2 -5.5q0 -5 3 -14l3 -8v7q0 8 2.5 9.5
t3.5 -5.5l1 -6l6 5q6 6 14 24q6 15 10.5 20.5t10.5 5.5t10 3.5t11 15.5q5 9 23.5 28t26.5 24q5 2 20 2t26 -3q6 -2 11.5 -5.5t13.5 -12.5q14 -14 14 -18t11 -10t14 -13t5 -6.5t13.5 14t11.5 15.5t2 -1t3.5 -0.5t2.5 13.5l2 14l1 -11q3 -18 8 -18q3 0 16.5 -12.5t18.5 -18.5
v-1q4 -5 5.5 -6t8 2t9 3t9.5 -13l8 -12q1 -1 5 4t12 9.5t13 4.5t11 -3.5t9 -9t10.5 -16.5t10.5 -23q3 -8 4 -9t2 2q2 5 4 4t6 -11.5t8.5 -11t5.5 -3t2 -2.5t4 2t4.5 2t5.5 -1q6 -3 10 -17q6 -16 11.5 -25t22.5 -27q21 -22 23 -27l2 -6l3 6q3 6 3.5 6t-0.5 -8v-8l13 13l-1 -8
q-1 -6 -0.5 -7t3.5 -0.5t3 0t-2 -4.5l-4 -6l5 4q7 7 1 -8v-1q-3 -6 -3 -7t5 1v0q6 2 6.5 1.5t-2.5 -3.5q-9 -11 -28 -14q-9 -1 -15 -4t-13.5 -3t-18 -5.5t-13.5 -5.5t-10.5 -11t-8.5 -17.5t0 -8.5t5 -7l17 -15q5 -5 7.5 -6t8 1t19.5 9l1 1q16 8 21 8t23.5 -7.5t26.5 -16.5
t9 -11.5t15.5 -4.5t20.5 -5q9 -5 12.5 -16t-1.5 -18q-3 -5 -20 -16t-26 -14t-35 -3q-18 0 -24 0.5t-14 4.5q-11 5 -22 15t-15 17q-2 6 -2 8t2 6q4 7 2.5 8.5t-5 -1t-5 -7.5t-11.5 -18.5t-12.5 -18.5t-2.5 -12q0 -14 15 -14q8 0 13.5 -4.5t11 -15.5t4.5 -24.5t-7 -21.5
q-10 -13 -53 -24q-15 -4 -26 -4.5t-32 3.5q-26 4 -35.5 10t-14.5 20q-3 8 -2.5 18.5t4 16.5t15.5 12.5t26 10.5t24 10.5t20 8.5q25 3 41 31q7 14 7.5 19.5t-6.5 12.5q-4 5 -9 4t-8.5 -9.5t-10.5 -16.5t-13 -10t-16 -14.5t-20.5 -17.5t-27.5 -6q-14 -1 -34 1.5t-32 7
t-19 12.5t-7 17q0 5 -2 5t-17.5 -10t-22.5 -16q-2 -2 -2 -3t2 -2t2 -1.5t-2 -0.5t-2 -1l4 -3h-2t-2 -0.5t2 -2.5l2 -1q0 -1 -2 -1h-2l4 -3q0 -1 -2 -1t-2 -0.5t2 -1.5l2 -2h-2h-2l2 -2q3 -2 0.5 -2t-2.5 -11l-1 -11l-1 11q0 11 -2.5 11t0.5 2l2 2h-2h-2l2 2q2 1 2 1.5
t-2 0.5t-2 1l4 3h-2t-2 1l2 1q2 2 2 2.5t-2 0.5h-2l4 3q0 1 -2 1t-2 0.5t2 1.5t0 4t-13 11l-4 3q-7 6 -10 7t-5.5 -2.5t-7.5 -15.5l-4 -8q-7 -17 -10 -21q-5 -6 -15 -8q-7 -1 -32 -1h-5q-33 1 -43 3t-13 10l-3 5l-8 -4q-8 -4 -6.5 -7.5t3 -10t4.5 -6.5l18 3q15 3 18 1
t-1 -11l-4 -9l-33 3l-4 -18q-1 -2 2 -4t12 -5q14 -6 19 -9l5 -4l-8 -6q-8 -5 -10 -4l-27 16l-15 -15l10 -12q17 -20 15 -22t-12 -2q-6 0 -8.5 2t-7.5 12l-8 15l-10 -3q-7 -2 -8.5 -3.5t-0.5 -5t2 -20.5zM323 267v11q0 8 -1 10t-4 3l-6 2q-1 0 -4.5 -11t-3 -11.5t9.5 -2.5z
M337 268q3 0 9 2t6 3.5t-4 10.5q-4 6 -7 8t-7 -1q-2 -1 -1.5 -11t3.5 -11zM291 278q2 0 7 10q5 7 5 8.5t-3 4.5v0q-4 4 -5 4t-9 -7l-8 -7l6 -7q6 -6 7 -6zM364 280l7 7l7 6l-9 6q-8 5 -10.5 5.5t-5.5 -2.5t-2.5 -5t6.5 -9zM324 295q4 0 4.5 1.5t-0.5 9.5q-1 11 -1.5 11.5
t-5.5 1.5t-13.5 -5.5t-4.5 -10t10.5 -6t10.5 -2.5zM335 296q1 0 6.5 2.5t10.5 8t5 7t-7 4.5q-9 3 -17 1q-2 -1 -2.5 -3t0.5 -7l1 -10q1 -3 3 -3zM271 301l10 6q10 6 9 8.5t-1 5.5t-2 3l-16 -3q-8 -2 -2 -14zM381 306q2 0 3 3l4 15h-12q-9 0 -11 -0.5t-2.5 -4t0.5 -5t5 -3.5
l3 -1q7 -4 9 -4h1zM91 308q-21 0 -33 5q-17 7 -31.5 21.5t-21.5 31.5q-5 13 -5 34t5 35q10 29 36 56q14 15 18 24t4 25q-1 13 1 13t3 11l2 10h18q16 0 18.5 -1.5t2.5 -11.5q0 -8 3.5 -8t3.5 -5v-5l8 4q17 9 42.5 11.5t41.5 -3.5q10 -4 3 -2q-27 5 -54 1.5t-40 -13.5l-4 -4
l3 -14q3 -9 6 -14t16 -18q15 -15 23.5 -27.5t14.5 -29.5q6 -14 6 -34.5t-5 -33.5q-7 -17 -21 -31.5t-32 -21.5q-12 -5 -32 -5zM299 311q2 0 7 4t5.5 6t-2 7.5t-7.5 8t-7 2.5t-1.5 -11.5t2.5 -14t3 -2.5v0zM356 319q3 0 4 5.5t-1 13t-5 9.5t-7 -1.5t-3.5 -13t4.5 -10.5z
M570 319q-1 0 -1 4q0 7 1 3t0 -7v0zM264 333h13q9 0 10.5 0.5t2 4.5t-1 5.5t-7.5 4.5l-2 1q-8 3 -9.5 2t-3.5 -10zM366 333q1 0 5 1q7 1 10.5 2t4 5t-1.5 8t-4 4t-10.5 -4.5t-7.5 -7.5t1 -5.5t3 -2.5zM308 339q2 0 2 1v6q-1 16 -10 3q-4 -5 -3.5 -6.5t7.5 -2.5zM322 339
l0.5 1t-0.5 3.5t-1 -0.5t1 -4v0zM329 339q1 0 2.5 1t-0.5 5t-4 4t-2 -4.5t4 -5.5zM344 348q1 0 3.5 2.5t1.5 4t-2.5 1.5t-3 -3.5t-0.5 -4.5h1zM320 350v1q1 3 0 5.5t-1 -2.5q0 -3 1 -4v0zM332 351q1 -1 2 3.5t0.5 5t-3 -2.5t-0.5 -6h1zM794 352q4 0 6 1.5t2 3t-4 4.5
q-5 5 -6 5t-7 -6t-3 -6t9 -1zM357 352q1 0 6.5 4t7.5 6.5t1.5 4.5t-4.5 6l-6 6l-6 -8q-5 -8 -5.5 -10.5t2.5 -6.5q2 -1 3 -1zM295 352q2 1 5 3l4 4l-7 9q-7 9 -8 9t-6.5 -6t-5.5 -7.5t9 -6.5q7 -4 9 -4v-1zM765 356q3 0 4 1t3 5t2 5t-3 1q-5 0 -13 -3.5t-6.5 -5t9.5 -2.5z
M326 357q2 0 3.5 2t1 2.5t-4 0.5t-3.5 -2.5t2 -2.5h1zM379 369l8 7l8 6l-6 14q-6 14 -7 14t-9 -12t-8 -14t7 -9zM305 376q2 1 0 6q-1 3 -3 3t0 -5q2 -3 3 -3v0v-1zM337 381v0v0q1 0 1 4t-3 4t-3 -0.5t2 -2.5zM316 382l1.5 0.5t1.5 3.5t-2 3t-2 -3.5t1 -3.5zM350 391
q2 0 8.5 17t9 18.5t7.5 -4.5t-5 14l-8 16q-2 4 -2.5 4.5t-1.5 -1.5v-1q-2 -5 -5.5 -33.5t-2.5 -29.5v0zM315 394q2 0 2 1t-2.5 2t-2.5 -1t3 -2zM338 394q2 0 2 2t-1 2t-2.5 -2t1.5 -2zM332 401q1 0 3.5 2t2.5 2.5t-3.5 0.5t-3.5 -2.5t1 -2.5v0zM768 416q4 0 10 7q3 2 3 3
t-4 2q-13 3 -18 0q-2 -2 3 -8q3 -4 6 -4zM335 417q2 0 2 0.5t-2 3t-3 2.5t-1 -3t4 -3zM342 423q2 0 3 9.5t0.5 10.5t-7.5 -5l-7 -5l5 -5q5 -5 6 -5zM310 425q2 0 2 5t2.5 6t-3.5 6l-5 5l1 -7q1 -7 1 -11t2 -4zM782 431q2 0 3 4t5.5 8t4.5 5.5t-3.5 5t-10 16.5t-19.5 26.5
t-18 20t-8.5 7t-13.5 -3.5q-23 -9 -48 0q-22 7 -40 0q-4 -2 -5 -4t-1 -9v-10h12q11 0 11 -3.5t4 -3.5t12 -3.5t14 -8.5l5 -4h-17q-14 0 -25 -2.5t-7.5 -4.5t-1 -2t-5 -0.5t1.5 -1.5t2 -2t-1.5 -2t-1.5 -1.5t2 -1.5t-2 -5t-5 -1t-5 3t-5 -1.5t-0.5 -5t2.5 -5t8 -2.5
q9 -1 20 3l11 5l22 -5q22 -5 31 -4q31 3 38 -3q4 -4 13.5 -3t15.5 0q3 -1 5 -1zM327 438l8 5q7 6 7 6.5t-13.5 0.5t-13.5 -1.5t6 -6.5zM862 443q5 0 14 3t9 4.5t5 8.5l5 8l-6 1q-4 1 -6.5 0.5t-14.5 -6.5l-2 -1q-13 -6 -15 -8t1.5 -5.5t6.5 -4.5h3zM932 444q11 0 11 2
t-10.5 10.5t-13 8.5t-6 1t-3.5 0.5t3 -5.5q3 -6 3 -10t3 -5.5t10 -1.5h3zM898 448q10 0 11.5 2.5t-3.5 8.5q-4 4 -6 4t-6 -5q-7 -7 -6 -8.5t10 -1.5zM620 457h3q4 1 -2.5 1t-3.5 -1h3zM310 461h16h17l-7 6q-8 6 -9 6t-9 -6zM620 463q2 0 3 1q4 1 -2.5 1t-3.5 -1zM304 467
q2 0 8.5 4.5t6.5 6t-10 8.5l-10 7l2 -7q1 -6 1 -12.5t2 -6.5zM349 467l0.5 0.5t0.5 2.5t-4 8q-4 4 -5.5 4.5t-4 -1.5t-2 -3t6.5 -5.5t8 -4.5v-1zM326 484h1.5t3.5 2q5 4 3.5 7.5t-14 3.5t-12.5 -1t9 -7h1q6 -5 8 -5zM313 507q8 0 9 0.5t-2.5 4t-5 3.5t-6.5 -4l-5 -4h10z
M299 515q1 0 5 3t4 4t-3.5 5t-6.5 5.5t-3.5 0t0.5 -6.5q1 -11 4 -11zM81 520h5h27l-1 8q-2 8 -3 9.5t-21 1.5q-17 0 -20.5 -2t-3.5 -12q0 -4 2.5 -4.5t14.5 -0.5zM810 677h1t3.5 5.5t2.5 7t-3.5 0.5t-4.5 -3l-1 -5q-1 -2 1 -4q0 -1 1 -1zM802 678l0.5 4t-1 7t-3.5 3t-1.5 -4
t3 -7zM772 699q3 0 0 12t-6 19l-3 8l1 -9q2 -25 6 -28zM759 719l-1 7q-2 7 -4 15q-2 6 -3.5 7t-8.5 1t-14.5 -2.5t-7.5 -4t8.5 -0.5t13 -1.5t10.5 -12.5zM710 738l7 7q6 5 15 8t13 1.5t3 2t-6 7.5q-6 5 -11.5 4t-13.5 -9q-6 -6 -7.5 -8.5t-0.5 -6.5zM590 780q5 0 18.5 9
t20 10t7.5 2.5t-4 5.5q-15 10 -36 -15q-8 -10 -8 -11t2 -1z" />
</svg>
