<?xml version="1.0" standalone="no"?>
<!DOCTYPE svg PUBLIC "-//W3C//DTD SVG 1.1//EN" "http://www.w3.org/Graphics/SVG/1.1/DTD/svg11.dtd" >
<svg xmlns="http://www.w3.org/2000/svg" xmlns:xlink="http://www.w3.org/1999/xlink" version="1.1" viewBox="-10 0 1034 1024">
   <path fill="currentColor"
d="M530 76q-84 0 -154 35t-110 98q-13 13 -36 26q-20 12 -28 14q-12 3 -19 12.5t-6 20.5q1 10 8 18t20 13l-6 6q-19 23 -15 47q1 5 3 9q-41 69 -41 149q0 20 3 40q-6 -2 -13 -2q-15 0 -28 6.5t-23 17.5q-21 26 -13 64q5 24 28.5 56t53.5 56q33 27 61 33q9 2 17 2
q24 0 37 -18q3 -6 5 -12q62 42 137 50q7 23 26 33q13 7 31 7q41 0 67 -31h5q20 0 42 -3q-38 42 -91 68q-49 24 -92 24v0q-51 0 -72 -34q-16 -29 -41 -45t-52.5 -16t-45 18t-18.5 47q-1 32 32 66q30 31 76 52q53 23 106 23q25 0 48 -5q66 -16 125.5 -54t102.5 -91t60 -111
q59 -46 86 -142q22 -83 17 -185q-5 -92 -28 -157q-4 -13 -9 -24h15q17 0 34 -4q31 -10 54 -28q20 -16 31 -36q11 -18 10 -32q0 -11 -6 -19t-14.5 -10t-49.5 -2h-86q-60 0 -90 -1q-63 -46 -144 -49h-10zM530 107v0l25 1q14 1 27 4l11 3q15 4 29 10l17 8l16 9l-2 2l-2 4l-1 4
l1 5l4 8q3 5 8 10l14 12l25 19l33 19l2 4q8 13 15 27l6 13l8 22v0l9 29q5 18 8 40q6 33 8 69q4 51 0 99l-3 25q-2 17 -5 33l-6 24l-7 26l-13 32l-12 23l-12 18l-14 16q-11 11 -23 19l-12 8l-12 7q-11 7 -23 12l-11 5l-16 6q-18 6 -35 9l-14 2l-17 2q-8 1 -17 0q4 -9 6 -18
l4 -15l3 -14l1 -18v-9q0 -10 -2 -20l-3 -16l-6 -19l9 -15l10 -13l9 -8l10 -8l9 -6q21 -11 47 -14l15 -1l16 2l11 2q10 2 18 6v0q5 2 9 5l4 2q4 4 7 8q1 1 3 2v0q4 2 8 -1l2 -3l1 -3l-2 -5l-8 -8l-11 -8q3 -9 5 -18l2 -10l3 -33l1 -23l-2 -24l-3 -20l-3 -12l3 1h5q2 -1 3 -2
l1 -2q1 -2 1 -5l-2 -3l-50 -44l-23 -18l-12 -7l-15 -9l-20 -8l-19 -5l-21 -3q-8 0 -18 1l-15 2q-10 1 -24 4l-17 4l-36 7q-9 1 -15 0q-12 -1 -21 -7l-9 -7q-2 -3 -2 -6q-2 -6 1 -14l7 -11l16 -15l11 -8q6 -3 13 -6l13 -6l17 -6l18 -4q9 -1 19 -2l15 -1l16 1q16 1 30 4l6 2
q9 2 17 5l4 1q2 0 3 -1l3 -4l1 -3q0 -2 -1 -4l-1 -1q-1 -1 -3 -2l-14 -5q-19 -5 -39 -7l-10 -1h-15v-2l1 -3l-2 -4q-1 -1 -3 -2h-5q-19 6 -32 9l-12 3q-34 6 -60 -2l-11 -3l-18 -9q-2 0 -3.5 0.5t-3.5 1.5l-1 2q-3 4 -6 9l-8 8l-6 5l-14 9q-10 6 -21 11l-10 3q-6 3 -12 4
l-4 1h-6l-7 -3l-5 -5q-4 -5 -7 -11v-2q-2 -4 -2 -8v-13l4 -15q3 -8 9 -17l15 -22l38 -40l53 -33l59 -21zM669 155h3l50 2h100l77 1l-2 8l-3 8l-10 13q-22 25 -58 36q-9 3 -19 4h-6l-15 -1q-13 -2 -26 -7l-19 -8q-10 -5 -20 -11l-14 -9l-14 -11l-17 -15l-10 -10h3zM502 164
q-6 0 -10.5 4.5t-4.5 11t4.5 11t10.5 4.5t10.5 -4.5t4.5 -11t-4.5 -11t-10.5 -4.5zM411 205h-1h-2q-22 2 -31.5 9.5t-7.5 14.5t12 8l2 1q9 1 13 0t13 -8t10 -16t-8 -9zM325 207q-7 0 -11.5 4.5t-4.5 10.5t4.5 10.5t11 4.5t11 -4.5t4.5 -10.5t-4.5 -10.5t-10.5 -4.5zM263 251
q-1 1 -1 2l-2 12q-1 5 0 11v4q-17 5 -30 5h-10q-7 -1 -10 -4l-2 -2h1q4 -1 10 -4l6 -2q18 -9 38 -22zM256 319h1h1l5 4q2 2 3 4l3 10l-2 13q-3 7 -9 13q-10 10 -22 12h-9l-4 -1q-3 -2 -5 -4l-1 -2l-3 -9v-5l4 -9l4 -6l4 -5q9 -9 20 -13l4 -1q3 -1 6 -1zM345 324q24 0 48 9
q-4 8 -4 16q-25 -12 -51 -11q-29 0 -56 15q2 -7 2 -13q26 -13 54 -16h7zM400 372q13 14 36 16q11 1 29 -2q32 43 35 98q2 50 -24 98q-10 -5 -19 -5q25 -43 23 -91q-2 -45 -25 -82q5 25 -1 51q-7 32 -27 94q-12 38 -17 57q-5 10 -6 23l-3 10l2 -2q0 10 2 23q-40 25 -83 24
q-47 -3 -88 -39q-38 -34 -50 -81q-12 -44 -0.5 -90.5t39.5 -83.5q4 1 9 1h2q-11 12 -20 27q4 -1 12 -5q15 -6 24 -4q2 0 1.5 4t-3 6.5t-8 4t-7.5 2.5q2 46 13.5 87.5t38.5 94.5q1 -35 6 -68q3 -19 12 -53v0q-8 -24 -12 -39q-2 -10 -6 -31v0q-13 1 -15.5 0.5t-1.5 -4.5v0
q1 -8 7 -9l40 -3q39 -4 40 -3q6 6 -3 10q-5 2 -20 4q11 46 29 94q12 34 35 90q6 -26 14 -59v0q13 -39 11.5 -62.5t-17.5 -46.5q-27 -41 -4 -56zM201 443q-16 39 -14 80q2 43 24 77q24 38 67 57q-41 -61 -58.5 -109.5t-18.5 -104.5zM310 510q-11 51 -13 92q-2 29 2 62
q16 3 32 2q22 -1 47 -13q-4 -5 -22 -41q-26 -50 -46 -102zM136 593h2l4 1l10 2l8 4l6 4l6 5q5 5 12 14v0q24 33 51 89l6 13l3 9q2 9 2 18q-1 3 -1 6l-2 4l-5 4q-3 1 -6 1l-10 -1l-8 -3q-12 -5 -26 -14v0q-20 -14 -40 -34v0q-18 -19 -30.5 -38.5t-15.5 -33.5q-5 -21 6 -35
l4 -5l4 -4l3 -2l8 -3zM453 597q6 0 12 3l10 6l16 15l28 43l10 33q7 31 0 60l-6 23l-3 7l-6 12l-7 9l-10 8l-6 3l-6 3l-7 1l-10 1h-6l-6 -1l-4 -2q-2 -2 -4 -3l-3 -5l-4 -11q-1 -6 -1 -15v-41v-18l-9 -46l-7 -36q-1 -19 4 -31l4 -5l9 -9q6 -4 12 -4zM687 768q-4 10 -8 19.5
t-9 18.5l-17 28l-9 13q-7 9 -14 17l-7 8q-28 31 -63 57l-10 6q-14 10 -29 18l-15 8l-16 8l-26 10l-11 4l-28 8l-9 2q-12 2 -23 2h-10h-13q-13 -1 -26 -4l-6 -1l-22 -6l-17 -6l-17 -8l-16 -8l-14 -9l-20 -16l-13 -13l-7 -9q-11 -16 -11 -28t4 -20l3 -5q6 -8 15.5 -10t18.5 -1
l10 3l11 4q6 4 12 9l10 9q9 9 16 20l10 14l8 8l10 8l13 7l13 6q18 6 39 6h17l21 -2l26 -6q45 -13 88 -42l19 -15l22 -19l20 -20l6 -8l22 -30l7 -12q11 -5 22 -10.5t23 -12.5z" />
</svg>
