<?xml version="1.0" standalone="no"?>
<!DOCTYPE svg PUBLIC "-//W3C//DTD SVG 1.1//EN" "http://www.w3.org/Graphics/SVG/1.1/DTD/svg11.dtd" >
<svg xmlns="http://www.w3.org/2000/svg" xmlns:xlink="http://www.w3.org/1999/xlink" version="1.1" viewBox="-10 0 1034 1024">
   <path fill="currentColor"
d="M198 429q-13 0 -21 7t-8 22v136h-140q-15 0 -22 8t-7 21v21q0 13 7 21t22 8h140v135q0 9 6.5 15.5t15.5 6.5h107q3 0 7.5 -3.5t4.5 -9.5v-49h-54q-12 0 -16 -6t-4 -19v-227q0 -13 4 -19t16 -6h54v-50q0 -5 -4.5 -8.5t-7.5 -3.5h-100zM702 429q-3 0 -7.5 3.5t-4.5 8.5v50
h54q12 0 16 6t4 19v227q0 13 -4 19t-16 6h-54v49q0 6 4.5 9.5t7.5 3.5h107q9 0 15.5 -6.5t6.5 -15.5v-135h140q15 0 22 -8t7 -21v-21q0 -13 -7 -21t-22 -8h-140v-136q0 -15 -8 -22t-21 -7h-100zM280 524q-5 0 -8 3.5t-3 8.5v191q0 5 3 8.5t8 3.5h220v-54l-54 -54l54 -53v-54
h-220zM533 524v54l-54 53l54 54v54h187q5 0 8 -3.5t3 -8.5v-191q0 -5 -3 -8.5t-8 -3.5h-187zM382 594q15 0 25 10.5t10 25t-10 24.5t-24.5 10t-25 -10t-10.5 -24.5t10.5 -25t24.5 -10.5zM618 594q14 0 24.5 10.5t10.5 25t-10.5 25t-25 10t-24.5 -10.5t-10 -24.5t10 -25
t25 -10.5z" />
</svg>
