<?xml version="1.0" standalone="no"?>
<!DOCTYPE svg PUBLIC "-//W3C//DTD SVG 1.1//EN" "http://www.w3.org/Graphics/SVG/1.1/DTD/svg11.dtd" >
<svg xmlns="http://www.w3.org/2000/svg" xmlns:xlink="http://www.w3.org/1999/xlink" version="1.1" viewBox="-10 0 1034 1024">
   <path fill="currentColor"
d="M442 176q-20 1 -35.5 15t-17.5 33q-3 23 9 53l3 6q9 22 8 34l-1 16q-3 79 -10 118q-8 -13 -24 -41q-21 -37 -34 -54q-20 -26 -44 -28q-19 -2 -36 11t-20 32q-1 9 2 20q1 7 7 20l3 7q7 18 21 57q20 55 33 82l8 15q16 30 19 47q6 28 14 83l9 56q5 34 11 50q4 10 16 28.5
t16.5 29.5t8.5 34l9 43q11 55 18 83q43 -8 131 -25l128 -24q43 -8 64 -16q-2 -25 -13 -74q-7 -30 -10 -46q-4 -26 -3 -47t12 -62q7 -22 9 -33l3 -12q6 -22 4 -33q-3 -15 -21 -40q-10 -15 -14 -22.5t-6 -17.5v-18v-8q-1 -39 7 -117q5 -53 6 -79q2 -45 -2 -80q-2 -17 -4 -26
q-3 -14 -8 -24q-10 -20 -30 -26q-14 -4 -28.5 -1.5t-25.5 12.5q-18 16 -26 50q-6 23 -12 68q-5 39 -9 58l-10 -21q-12 -25 -17 -38q-7 -18 -13 -56q-3 -23 -6 -33q-4 -19 -10.5 -32t-21 -19.5t-30.5 -6.5q-7 1 -22 0zM443 199h2l47 3l5 1q12 3 19 13l3 5l4 11q2 7 4 15v0
q1 9 3 22l2 11q2 21 5 32q3 18 9 31l12 26q8 19 15 33l15 25l12 18q2 -13 4 -29l3 -27q4 -40 7 -59l3 -24q5 -40 13 -58q4 -11 9 -17l2 -2l7 -6l7 -3q5 -2 10 -2l3 -1q5 0 10 1l10 3q10 3 17 11l3 5l3 5l3 5q4 11 6 24l1 6l1 43q0 19 -1 42l-9 119q-3 49 -3 90v5l1 13
q2 9 5.5 15.5t12.5 18.5q12 17 15 27q2 3 2 7l1 5v12q-1 13 -4 29l-5 19l-13 55q-4 17 -3 30q0 17 4 39l15 66q2 10 3 19l1 9q1 10 0 20l-8 -15l-4 -7l-1 -4l-19 -94l-4 -30l-28 7l5 -5q9 -11 13 -17l8 -12q4 -7 6 -13q4 -13 8 -29l8 -30l4 -26l1 -15l-2 -9l-3 -11
q-4 -9 -14 -22l-18 -24q-15 -18 -34 -35l-11 -10q-11 -7 -22 -11q-7 -2 -17 -3v0q-12 -2 -36 -2h-16v4q-1 10 -1 15l-3 12l-3 6q-2 3 -4 5t-5 4l-6 3q-8 4 -16 6l-10 1l-44 3q4 5 10 10l5 4q13 9 29 17l13 5l19 6q10 3 20 4l10 1h5l10 -2l4 -1q8 -3 23 -10t23 -9l-5 6
q-9 10 -23 19l-11 6l-14 8l9 19l8 12l10 10l10 5l8 3q7 2 17 2h4q7 -1 20 -3l15 -2l-9 7q-8 5 -15 8l-5 2q-5 1 -9 1h-3q-3 1 -7 0l-8 -1q-4 -2 -14 -5l-11 -4l-7 -2l-11 -1q-8 2 -17 8l-25 19q3 -9 9 -19l13 -23v-4q1 -5 -2 -12l-5 -8l-4 -7l-6 -5q-6 -4 -22 -8l-6 -1
q-15 -4 -25 -8q-6 -3 -12 -5q-14 -8 -23 -19l-3 -4l-4 -9l-3 -8q-1 -5 -1 -10v-14l2 -14l4 -13l6 -12l4 -4l2 -2q2 -1 5.5 -2t7.5 -1h9l21 1h40q20 -1 30 -1h12l36 4l11 3l7 3l10 6q7 6 18 16l17 16q2 -13 3 -30l2 -58l6 -93l4 -106q1 -19 -2 -31l-2 -7q-3 -9 -8 -16
q-2 -3 -5 -5l-5 -4q-4 -2 -8.5 -2.5t-8.5 -0.5q-18 0 -26 14l-4 10q-2 5 -4 11q-2 9 -5 29l-1 8q-10 92 -13 141l-1 47q10 2 19.5 4t19.5 4q-6 3 -12 5l-8 2l-13 3q-9 1 -17 2l-18 1l15 -19l-16 -35l-14 -26q-10 -16 -14 -25l-1 -3l-18 -39q-2 21 -2 63l-1 38v39l25 10l-4 1
q-11 5 -16.5 6.5t-10.5 2.5l-5 1l-10 -1l-8 -2l-8 -4l-11 -6l30 -3q4 -36 1 -69l-3 -1q-42 -12 -61 -23l16 1l16 2l33 5q1 -9 2 -19l1 -10v-19q0 -13 -1 -29q-14 -4 -33 -6l-33 -5q14 -8 33 -8q13 0 35 3q-1 -25 -6 -55l-3 -18l-3 -18q-3 -10 -7 -17l-3 -4l-5 -3l-7 -3
l-5 -1q-6 0 -11 2l-2 1q-2 2 -4 3l-3 3l-5 7q-3 5 -5 12l-5 15q-3 14 -5 42l-6 53q-3 21 -4 33l-5 114l-1 34l27 -5l-11 13q-7 8 -13.5 12t-16.5 7q-6 2 -18 4l15 -20l-32 -60q-26 -49 -43 -79l-12 -19l-11 -14q-6 -6 -12 -7l-2 -1q-3 0 -6 1l-4 1l-9 3l-4 3l-4 3l-2 4
t-1.5 4.5t0.5 4.5l1 11l3 10q2 7 4 15l18 44l18 51q5 15 10 26l7 16l12 24l23 46l10 1q14 0 30 2l-19 8q-11 5 -19 7q2 17 7 49l8 57q5 38 14 55l7 12l8 10l6 5q9 6 28 16l13 7l-28 1l5 29l19 87q1 4 2 9v13q-1 6 -2 14q-9 -23 -18 -72l-7 -34l-5 -19l-3 -9l-7 -18
q-3 -6 -7 -13l-13 -19q-7 -12 -11 -20q-2 -5 -4 -11q-2 -9 -4 -23l-9 -63q-4 -32 -8 -52l-6 -25l-3 -9q-3 -8 -7 -17l-5 -12l-9 -16l-11 -24l-7 -16l-27 -75l-23 -58l-3 -14q-1 -7 0 -13l1 -3l2 -6l8 -8l6 -4l7 -3q4 -1 8.5 -2t9.5 0h5q8 2 14 7l4 5l8 10l37 62l26 49
q13 26 23 42q2 -20 2 -59l2 -48l6 -85v-12l-1 -4l-2 -11l-8 -21q-3 -9 -5 -17v0q-2 -7 -3 -13l-1 -9q-1 -7 0 -14l1 -6l5 -10l5 -6l8 -6l9 -4zM453 207q-12 0 -21.5 5t-12.5 16q-5 23 13 58l4 -13q10 -45 20 -66h-3zM646 335h6l14 1l13 3q6 2 13 4l6 3q-11 2 -19 3l-5 1
q-7 0 -13 -1.5t-11 -3.5l-16 -9zM346 423q-2 2 -4 6v0q-4 5 -7 9l-2 3l-6 4l-6 4l-7 3l-14 3l4 -5l8 -8l14 -10q9 -5 20 -9zM658 428h4l5 1q8 1 19 8l6 4q-16 1 -31 -2v0q-9 -1 -19 -4l-11 -4l19 -2zM377 485q0 1 -2 3l-9 8l-9 7q-13 9 -30 16q15 -20 26 -27q5 -2 12 -4z
M472 543q-7 22 -11 41l36 3h9l9 -1l9 -1l9 -3q4 -1 8 -5l1 -2q2 -3 4 -9l5 -16q-33 -4 -59 -6z" />
</svg>
