<?xml version="1.0" standalone="no"?>
<!DOCTYPE svg PUBLIC "-//W3C//DTD SVG 1.1//EN" "http://www.w3.org/Graphics/SVG/1.1/DTD/svg11.dtd" >
<svg xmlns="http://www.w3.org/2000/svg" xmlns:xlink="http://www.w3.org/1999/xlink" version="1.1" viewBox="-10 0 1034 1024">
   <path fill="currentColor"
d="M809 174q-25 0 -47 11q-35 15 -54 52q-17 34 -13 74v320q-16 -15 -46 -46q-56 -57 -87 -83q-24 -17 -53.5 -18t-57 11.5t-45.5 35.5l-101 100v-134q1 -146 0 -219q-4 -42 -36.5 -72.5t-74.5 -30.5q-34 -2 -62.5 16t-44 49t-11.5 64v234q-1 254 0 381q2 36 27 63.5
t60.5 37.5t68.5 -4q20 -9 40 -27q12 -10 34 -34q20 -20 30 -29l164 -164l90 89l147 147q28 24 66 25.5t70.5 -19t44.5 -55.5q5 -21 6 -47q1 -15 1 -47q-1 -29 0 -43v-203q0 -221 -1 -331q-2 -29 -18.5 -52.5t-42.5 -37.5t-54 -14zM193 241q20 -1 33 15t13 36t-15 33.5
t-35 12t-34.5 -15.5t-13.5 -33.5t15.5 -34t34.5 -13.5h2zM812 241q20 -1 33 15t13 36t-14.5 33.5t-35 12t-34.5 -15.5t-13.5 -33.5t15.5 -34t34 -13.5h2zM502 550q17 0 30 12.5t16 30t-6 32.5t-27 20t-35.5 -2.5t-23.5 -24.5q-7 -15 -2.5 -31t17.5 -26.5t29 -10.5h2z
M812 860q18 0 31 13.5t15 32t-9 33t-29.5 17.5t-35 -6t-21.5 -27q-5 -15 0.5 -30t18 -24.5t28.5 -8.5h2zM193 860q20 0 33 16t12.5 36.5t-16.5 32.5q-14 14 -34 12t-33.5 -16.5t-12.5 -34t15.5 -33t33.5 -13.5h2z" />
</svg>
