<?xml version="1.0" standalone="no"?>
<!DOCTYPE svg PUBLIC "-//W3C//DTD SVG 1.1//EN" "http://www.w3.org/Graphics/SVG/1.1/DTD/svg11.dtd" >
<svg xmlns="http://www.w3.org/2000/svg" xmlns:xlink="http://www.w3.org/1999/xlink" version="1.1" viewBox="-10 0 1034 1024">
   <path fill="currentColor"
d="M500 175q-115 0 -214 59q-97 56 -153 152q-58 99 -58 214.5t58 214.5q56 96 153 152q99 58 214 58t214 -58q96 -56 153 -152q58 -99 58 -214.5t-58 -214.5q-57 -96 -153 -152q-99 -58 -214 -59zM500 195q110 0 204 55q92 54 146 146q55 94 55 204t-55 205
q-54 92 -146 146q-94 55 -204 55t-205 -55q-91 -54 -145 -146q-55 -95 -55 -205t55 -204q54 -92 145 -146q95 -55 205 -55zM500 236q-94 0 -176 45q-79 44 -129 119l24 1q24 0 63 -3l34 -2q9 -1 13.5 6.5t1.5 15t-13 8.5l-12 1q-16 2 -29 3l132 394l80 -239l-57 -155l-38 -4
q-9 -1 -12 -8.5t1 -15t13 -6.5l35 2q39 3 62 3t62 -3l35 -2q9 -1 13 6.5t1 15t-12 8.5l-13 1q-15 2 -29 3l132 391l40 -131q13 -43 17 -60q7 -28 7 -48q0 -30 -10 -58q-6 -18 -20 -43l-4 -7q-17 -26 -22 -39q-10 -21 -10 -39q0 -26 17.5 -45.5t43.5 -19.5l5 1
q-49 -46 -112 -71q-64 -25 -134 -25zM820 426q2 18 2 37q0 61 -27 131l-112 322q83 -49 132 -131q50 -85 50 -185q0 -93 -45 -174zM167 452q-32 71 -32 148q0 107 58 196q55 88 148 133zM506 632l-109 318q51 15 103 15q62 0 121 -21l-2 -5z" />
</svg>
