<?xml version="1.0" standalone="no"?>
<!DOCTYPE svg PUBLIC "-//W3C//DTD SVG 1.1//EN" "http://www.w3.org/Graphics/SVG/1.1/DTD/svg11.dtd" >
<svg xmlns="http://www.w3.org/2000/svg" xmlns:xlink="http://www.w3.org/1999/xlink" version="1.1" viewBox="-10 0 1034 1024">
   <path fill="currentColor"
d="M359 242q-98 0 -181 49q-82 48 -129 129q-49 84 -49 181.5t49 180.5q47 81 129 129q83 49 181 49q73 0 141 -29q68 29 141 29q98 0 181 -49q81 -48 129 -129q49 -83 49 -180.5t-49 -181.5q-48 -81 -129 -129q-83 -49 -181 -49q-73 0 -141 29q-68 -29 -141 -29zM352 355
q80 0 145 47q65 -47 145 -47q67 0 124 33.5t90.5 90.5t33.5 124.5t-33.5 124.5t-90.5 90.5t-124 33.5q-80 0 -145 -47q-65 47 -145 47q-68 0 -125 -33.5t-90.5 -90.5t-33.5 -124.5t33.5 -124.5t90.5 -90.5t125 -33.5zM270 455q-36 77 -36 146q0 59 25 103q21 38 51 52
q51 22 95 17q60 -8 92 -65q18 35 53 52q30 15 68 14q35 -1 67 -15.5t54 -57.5q24 -47 23 -106q-1 -69 -36 -140h-120q20 46 27 99q7 51 0 87.5t-27 38.5q-23 2 -32 -7q-12 -10 -15.5 -43.5t-1.5 -106.5h-117q6 101 -10 137q-14 30 -44 16q-27 -11 -26.5 -70t28.5 -151h-118z
" />
</svg>
