<?xml version="1.0" standalone="no"?>
<!DOCTYPE svg PUBLIC "-//W3C//DTD SVG 1.1//EN" "http://www.w3.org/Graphics/SVG/1.1/DTD/svg11.dtd" >
<svg xmlns="http://www.w3.org/2000/svg" xmlns:xlink="http://www.w3.org/1999/xlink" version="1.1" viewBox="-10 0 1034 1024">
   <path fill="currentColor"
d="M0 291q3 116 64 237q57 115 157 218q98 100 218 170q-86 67 -181 91l-1 14q42 -5 83 -16l5 -1q77 -18 155 -55q27 14 51 24q99 45 204 54v-15q-101 -25 -190 -97q119 -69 216 -169q99 -102 156 -217q60 -121 63 -238l-130 50l-45 15l-130 39q1 12 1 22q0 109 -51 228
q-53 121 -142 213q-86 -92 -137 -211q-50 -117 -50 -224q0 -13 1 -23l-130 -38l-42 -15z" />
</svg>
