<?xml version="1.0" standalone="no"?>
<!DOCTYPE svg PUBLIC "-//W3C//DTD SVG 1.1//EN" "http://www.w3.org/Graphics/SVG/1.1/DTD/svg11.dtd" >
<svg xmlns="http://www.w3.org/2000/svg">
<metadata></metadata>
<defs>
<font id="WebfontRegular" horiz-adv-x="1024" >
<font-face units-per-em="1024" ascent="819" descent="-205" />
<missing-glyph horiz-adv-x="500" />
<glyph unicode="&#x2000;" horiz-adv-x="512" />
<glyph unicode="&#x2001;" />
<glyph unicode="&#x2002;" horiz-adv-x="512" />
<glyph unicode="&#x2003;" />
<glyph unicode="&#x2004;" horiz-adv-x="341" />
<glyph unicode="&#x2005;" horiz-adv-x="256" />
<glyph unicode="&#x2006;" horiz-adv-x="170" />
<glyph unicode="&#x2007;" horiz-adv-x="170" />
<glyph unicode="&#x2008;" horiz-adv-x="128" />
<glyph unicode="&#x2009;" horiz-adv-x="204" />
<glyph unicode="&#x200a;" horiz-adv-x="56" />
<glyph unicode="&#x202f;" horiz-adv-x="204" />
<glyph unicode="&#x205f;" horiz-adv-x="256" />
<glyph unicode="&#xf000;" d="M153 169l312 -169v358l-312 159v-348zM169 590l335 -164q26 11 67.5 31.5t78 50.5t61 61t44.5 64.5t31.5 63t19.5 53t11 36.5l3 14q-1 -4 -3.5 -11t-12 -25t-22.5 -32.5t-36.5 -29t-51 -20t-69 1t-89.5 27.5q-30 14 -33 16zM503 727h1h-1zM535 0l312 169v348l-312 -159 v-358z" />
<glyph unicode="&#xf001;" d="M100 170q0 -71 50 -121t121 -50h458q71 0 121 50t50 121v459q0 70 -50 120t-121 50h-458q-71 0 -121 -50t-50 -120v-459zM430 392.5q0 29.5 21 50.5t50.5 21t50.5 -21t21 -50.5t-21 -50.5t-50.5 -21t-50.5 21t-21 50.5z" />
<glyph unicode="&#xf002;" d="M100 170q0 -72 50 -122t122 -50h456q72 0 122 50t50 122v456q0 71 -50 121.5t-122 50.5h-456q-72 0 -122 -50.5t-50 -121.5v-456zM163.5 512.5q9.5 85.5 67.5 144.5q0 1 1 1q35 38 83 57.5t99 19.5q64 0 117 -30h1q60 -32 95.5 -91.5t34.5 -127.5v-1q1 -68 -35 -128 l211 -210l-87 -87l-210 210q-31 -18 -65 -27h-1h-1q-90 -24 -177 21q-63 32 -98 91v1h-1q-44 71 -34.5 156.5zM239.5 504.5q-6.5 -61.5 22.5 -109.5h1v-1q24 -41 69 -64q61 -31 124 -14h1q55 13 93.5 62.5t37.5 106.5v1q0 46 -25.5 88.5t-66.5 64.5l-1 1q-36 20 -81 20 q-78 0 -128 -53v-1h-1q-39 -40 -45.5 -101.5z" />
<glyph unicode="&#xf003;" d="M100 168q0 -70 50 -120t121 -50h458q71 0 121 50t50 120v459q0 71 -50 121t-121 50h-458q-71 0 -121 -50t-50 -121v-459zM211 397q0 120 85 205.5t205.5 85.5t205.5 -85.5t85 -205.5q0 -79 -39 -146t-106 -106t-145 -39q-121 0 -206 85.5t-85 205.5zM298 397 q0 -84 60 -143.5t144 -59.5t143.5 59.5t59.5 143.5q0 55 -27.5 102t-74 74t-101.5 27q-84 0 -144 -59.5t-60 -143.5zM430 390.5q0 29.5 21 50.5t50.5 21t50.5 -21t21 -50q0 -15 -5.5 -28t-15 -22.5t-23 -15.5t-27.5 -6q-30 0 -51 21t-21 50.5z" />
<glyph unicode="&#xf004;" d="M112 62q0 -21 15 -36t37 -15h672q22 0 37 15t15 36v673q0 21 -15 36t-37 15h-672q-22 0 -37 -15t-15 -36v-673zM194 413.5q0 119.5 84.5 204.5t204 85t204.5 -85t85 -204v-290l-289 1q-120 0 -204.5 84.5t-84.5 204zM320 414q0 -34 13 -64t34.5 -51.5t52 -34.5t63.5 -13 q67 0 114.5 47.5t47.5 115t-47.5 115t-115 47.5t-115 -47.5t-47.5 -114.5z" />
<glyph unicode="&#xf005;" d="M194 413q0 -120 84.5 -204.5t204.5 -84.5h289v289q0 120 -85 204.5t-204.5 84.5t-204 -84.5t-84.5 -204.5zM320 413q0 33 13 63t34.5 51.5t52 34.5t63.5 13q67 0 114.5 -47.5t47.5 -115t-47.5 -115t-114.5 -47.5q-27 0 -51.5 8t-44.5 23t-35 35t-23.5 45t-8.5 52z" />
<glyph unicode="&#xf006;" d="M100 169q0 -82 64 -134q47 -37 107 -37h458q71 0 121 50t50 121v458q0 71 -50 121t-121 50h-458q-71 0 -121 -50t-50 -121v-458zM231 400q0 40 28.5 68t68.5 28q35 0 62 -23l186 95v9q0 40 28 68t68 28q27 0 49 -13t35 -35t13 -48q0 -40 -28.5 -68.5t-68.5 -28.5 q-35 0 -62 23l-186 -95v-8q0 -8 -1 -15l184 -94q28 25 65 25q40 0 68.5 -28.5t28.5 -68.5t-28.5 -68t-68.5 -28t-68 28t-28 68v6l-191 97q-25 -19 -57 -19q-40 0 -68.5 28.5t-28.5 68.5z" />
<glyph unicode="&#xf007;" d="M231 400q0 -27 13 -49t35 -35t49 -13q32 0 57 19l191 -97v-6q0 -15 5 -30t13.5 -27t20.5 -20.5t27 -13.5t30 -5q40 0 68.5 28t28.5 68t-28.5 68.5t-68.5 28.5q-37 0 -65 -25l-184 94q1 7 1 15v8l186 95q27 -23 62 -23q40 0 68.5 28.5t28.5 68.5t-28.5 68t-68.5 28 q-19 0 -37 -7.5t-31 -20.5t-20.5 -31t-7.5 -37v-9l-186 -95q-27 23 -62 23q-40 0 -68.5 -28t-28.5 -68z" />
<glyph unicode="&#xf008;" d="M110 312.5q22 -99.5 78 -166t143 -112.5q72 -39 171 -38t178 41q90 46 152 139q67 100 67 224q0 111 -67 216q-51 81 -133.5 130.5t-194.5 49.5q-16 0 -33 -1q-71 -5 -130 -31q-38 -17 -77 -44q-91 -65 -133 -171q-16 -39 -17 -45q-26 -92 -4 -191.5zM322 251l101 320 q5 16 18 25.5t29 9.5h54q16 0 29 -9.5t18 -24.5l106 -320q7 -20 -2.5 -38.5t-28.5 -24.5q-8 -2 -16 -2q-16 0 -29 9t-18 25l-23 73h-120l-23 -73q-5 -15 -18 -24.5t-29 -9.5q-8 0 -15 2q-20 6 -29.5 24t-3.5 38z" />
<glyph unicode="&#xf009;" d="M100 170q0 -72 50 -122t122 -50h456q72 0 122 50t50 122v456q0 72 -50 122t-122 50h-456q-72 0 -122 -50t-50 -122v-456zM238 207q0 16 5.5 29.5t15.5 23.5t24 16t29 6q32 0 54 -22t22 -53t-22 -53t-53.5 -22t-53 22t-21.5 53zM238 389v106q98 0 181.5 -48.5t132 -132 t48.5 -182.5h-106q0 106 -75 181.5t-181 75.5zM238 570v109q111 0 212 -43t174.5 -116.5t116.5 -174.5t43 -213h-109q0 89 -34.5 170t-93.5 140t-140 93.5t-169 34.5z" />
<glyph unicode="&#xf00a;" d="M238 207q0 -31 21.5 -53t53 -22t53.5 22t22 53q0 21 -10.5 38t-27.5 27t-38 10q-31 0 -52.5 -22t-21.5 -53zM238 389q106 0 181 -75.5t75 -181.5h106q0 99 -48.5 182.5t-132 132t-181.5 48.5v-106zM238 570q71 0 137.5 -22t120.5 -62.5t94.5 -94.5t62.5 -120.5t22 -138.5 h109q0 112 -43 213t-116.5 174.5t-174.5 116.5t-212 43v-109z" />
<glyph unicode="&#xf00b;" d="M100 154q0 -64 46 -110t110 -46h488q64 0 110 46t46 110v488q0 32 -12.5 60.5t-33.5 49.5t-49.5 33.5t-60.5 12.5h-488q-42 0 -78 -21t-57 -57t-21 -78v-488zM174 187v225h14q116 1 203 -72l-129 -130l-1 -1q-10 -11 -10 -25q0 -16 11 -27t26 -11t26 10l1 1l128 128 q71 -97 59 -217h-209q-33 0 -60 16t-43 43.5t-16 59.5zM336 476q21 21 48.5 33t56 13t57.5 -7l116 115l-18 18v1q-11 11 -11 25q0 27 25 36q7 2 13 2q15 0 26 -10v-1h1l149 -150q12 -11 12 -27q0 -15 -11 -26t-27 -11t-27 11l-17 17l-116 -115q14 -42 4 -86.5t-43 -76.5z " />
<glyph unicode="&#xf00c;" d="M89 120q0 -51 36 -87t87 -36h421q51 0 87 36t36 87v84h-8h-318q-29 0 -56 11.5t-46.5 30.5t-30.5 46t-11 56v314h-74q-25 0 -47.5 -9.5t-39 -26t-26.5 -39.5t-10 -47v-420zM329 348q0 -42 29.5 -71.5t71.5 -29.5h318q42 0 71.5 29.5t29.5 71.5v77h-244q-19 0 -36 9.5 t-26.5 26t-9.5 36.5v270h-103h-1h-1q-42 -1 -70.5 -30.5t-28.5 -70.5v-318zM576 497q0 -8 4 -14.5t10.5 -10.5t14.5 -4h277q12 0 20.5 8.5t8.5 20.5v271q0 12 -8.5 20.5t-20.5 8.5h-277q-12 0 -20.5 -8.5t-8.5 -20.5v-271z" />
<glyph unicode="&#xf00d;" d="M100 256q0 -98 104 -172t260 -87l121 57v684l-121 -60v-605v-1q-105 14 -174 65.5t-69 118.5q0 64 62 114t159 66v77q-97 -11 -175 -48t-122.5 -91.5t-44.5 -117.5zM606 436q71 -12 125 -43l-65 -37l234 -51l-17 173l-62 -35q-91 55 -215 70v-77z" />
<glyph unicode="&#xf00e;" d="M100 167q0 -70 50 -120t121 -50h458q71 0 121 50t50 120v459q0 35 -13.5 66.5t-36.5 54.5t-54.5 36.5t-66.5 13.5h-458q-71 0 -121 -50t-50 -121v-459zM176 405v77h100q26 69 87 111.5t137 42.5q72 0 132 -39q18 -12 18 -33q0 -11 -5 -20t-14 -14t-19 -5q-12 0 -22 7 q-41 27 -90 27q-38 0 -71 -16t-55.5 -44t-30.5 -63q-1 -3 -1 -4q-2 -5 -5.5 -10t-8 -8.5t-10.5 -5.5t-13 -3h-129zM351 231q0 16 11 27.5t27 11.5q12 0 22 -7q40 -27 89 -27q37 0 70 16t56 44t31 63v1q1 2 1 3q3 11 13.5 19t23.5 8h129v-77h-101q-26 -68 -87 -111t-136 -43 q-72 0 -132 40q-17 12 -17 32zM407 398q0 38 27.5 65t65.5 27t65 -27t27 -65t-27 -65t-65 -27q-25 0 -46.5 12t-34 33.5t-12.5 46.5z" />
<glyph unicode="&#xf00f;" d="M176 405h129q13 1 23 8.5t14 18.5q0 1 1 4q13 54 56.5 88.5t100.5 34.5q49 0 90 -27q10 -7 22 -7q16 0 27 11.5t11 27.5q0 21 -18 33q-29 19 -62.5 29t-69.5 10q-76 0 -137 -42.5t-87 -111.5h-100v-77zM351 231q0 -20 17 -32q60 -40 132 -40q75 0 136 43t87 111h101v77 h-129q-9 0 -16.5 -3.5t-13 -10t-7.5 -13.5q0 -1 -1 -3v-1q-13 -53 -57 -88t-100 -35q-49 0 -89 27q-10 7 -22 7q-10 0 -19 -5.5t-14 -14t-5 -19.5zM407 398q0 -38 27.5 -65t65.5 -27q19 0 36 7t29.5 19.5t19.5 29.5t7 36q0 38 -27 65t-65 27t-65.5 -27t-27.5 -65z" />
<glyph unicode="&#xf010;" d="M100 141q0 -5 1 -11q1 -4 1 -8q1 -5 3 -11q2 -9 5 -17q2 -3 3 -7q1 -2 2 -3q1 -3 3 -7q9 -16 21 -29l3 -3q7 -8 16 -15l6 -4q7 -5 15 -10q2 -1 3 -1q2 -1 3 -2h1l10 -4q1 -1 3 -2q2 0 4 -1q3 -1 7 -2q1 -1 3 -1l8 -2q2 0 3 -1q4 0 8 -1q6 0 11 -1h8h498h8q5 1 11 1 q4 1 8 1q1 1 3 1l8 2q9 2 17 6q3 1 5.5 2t4.5 2q12 6 22 13l6 4q9 7 16 15l3 3q13 14 22 32q2 4 4 7q1 4 3 7q3 8 5 17q1 4 2 7.5t1 7.5q1 2 1 4q0 5 0.5 9.5t0.5 9.5v498v4q0 10 -2 19q0 4 -1 8l-4 14q-2 9 -6 17l-2 4q-2 4 -5 9l-8 12v1q-2 2 -4 5q-10 13 -23 24 q-2 2 -5.5 4t-6.5 4q-1 1 -3 2l-6 4l-6 4q-4 1 -7 3q-8 4 -17 6q-3 1 -7 2t-7.5 2t-7.5 1q-6 1 -11 2h-8h-4h-498h-4h-8q-1 0 -3 -1h-4t-4 -1q-4 0 -7 -1q-2 0 -4 -1q-2 0 -5 -1l-6 -2q-1 0 -3 -1q-2 0 -4 -1q-3 -1 -6.5 -2.5t-6.5 -3.5q-1 0 -2 -1v0h-1h-1l-6 -4l-6 -4 q-2 -1 -3 -2q-3 -1 -5 -3t-3 -2q-2 -1 -4 -3q-13 -11 -23 -24q-2 -3 -4 -5q-4 -7 -8 -13q-1 -2 -2 -3q-2 -3 -3 -6l-2 -4q-1 -3 -3 -7q-2 -5 -3 -10l-4 -14q-2 -12 -3 -23v-8v-498v-8zM244.5 218.5q0.5 11.5 7.5 22t18 16.5q56 28 109 29h5q11 0 23 -1.5t20.5 -3t21.5 -5.5 t18 -6t18.5 -7t16.5 -6q22 -8 33.5 -11.5t31.5 -7t36 -2t38.5 7.5t47.5 17q12 6 24 7t22.5 -4.5t15.5 -16.5q8 -18 1.5 -35.5t-23.5 -25.5q-73 -34 -137 -34q-17 0 -35 4t-30 8.5t-29.5 11.5t-25.5 10q-32 12 -49.5 16t-47 0.5t-63.5 -20.5q-17 -9 -35.5 -6.5t-27.5 19.5 q-5 12 -4.5 23.5zM246.5 403.5q5.5 18.5 22.5 27.5q61 33 118 33h3q11 0 23.5 -1.5t20.5 -3t21 -5.5t18 -5.5t19 -6.5t17 -6q35 -13 54.5 -17.5t53.5 -1.5t73 20q17 9 35.5 5t26.5 -20q7 -18 0 -36t-24 -26q-68 -30 -129 -30q-12 0 -24 1.5t-21.5 4t-20.5 6.5t-19 7.5 t-18.5 7.5t-17.5 6q-34 13 -51.5 17t-48 -0.5t-65.5 -22.5q-16 -10 -35 -7.5t-28 18.5q-9 17 -3.5 35.5zM246.5 570q0.5 12 7 23t17.5 17q63 34 122 34q12 0 24 -1.5t20.5 -3t22 -5.5t18 -5.5t19 -7t16.5 -5.5q35 -13 54 -17.5t51.5 -2t69.5 18.5q18 8 36.5 4t25.5 -21 q5 -13 3.5 -24.5t-9 -22t-19.5 -15.5q-64 -27 -122 -27q-17 0 -35 4t-30 8.5t-29.5 11.5t-25.5 10q-26 9 -39.5 13t-35 5.5t-43.5 -5t-49 -21.5q-12 -6 -24 -7.5t-23 3t-17 15.5q-6 12 -5.5 24z" />
<glyph unicode="&#xf011;" d="M87 363q18 -55 83 -59q53 -3 109 31l1 1q-47 -20 -85.5 -9.5t-51.5 47.5q-14 43 13.5 96.5t81.5 86.5q42 25 82 27t63 -20q-24 43 -82 44h-3q-49 0 -100 -32q-63 -38 -95.5 -100.5t-15.5 -112.5zM164 221q-12 -51 26.5 -110t105.5 -91q60 -29 112 -20.5t71 50.5 q-22 -24 -61 -26t-84 19q-57 27 -90 78t-22 95q8 37 46 51.5t86 -0.5q0 1 -1 1q-45 21 -87 22h-5q-10 -1 -19 -2q-20 -3 -36 -11.5t-26.5 -23t-15.5 -32.5zM227 445q-4 -25 11 -46t40.5 -25t46 11t24.5 40t-11 46q-18 25 -49 26h-1h-1q-19 -1 -35 -12q-21 -15 -25 -40z M312 187.5q-4 -25.5 11 -46t40 -24.5t46 11q17 12 23 32h124h5l-2 22q0 6 1 13h-128q-3 10 -9 19l-2 2l-1 1v1l-2 2q-1 0 -1 1l-1.5 1.5l-1 1t-1.5 0.5l-1 1l-2 2q-1 1 -2 1l-1 1h-1q0 1 -2 2q-1 0 -1 1q-2 0 -2.5 0.5l-1.5 1.5q-3 1 -4 1q-1 1 -2 1q-10 3 -19 3h-1.5h-1.5 q-19 0 -34 -11q-21 -15 -25 -40.5zM345 498q7 -6 12 -13t8 -15l104 76q16 -13 36.5 -13t37.5 12q21 15 25 40t-11 46q-19 25 -49 25h-3q-19 0 -34 -12q-12 -8 -18.5 -20t-7 -24.5t3.5 -25.5zM360 704q-1 -52 36 -107l1 -1q-22 46 -13 85t45 54q42 16 97 -9t90 -78 q18 -26 25.5 -53.5t4.5 -51t-16 -39.5q19 12 29 32.5t10.5 45t-8.5 52.5t-28 56q-33 49 -82.5 78.5t-95.5 29.5q-22 0 -40 -8q-54 -21 -55 -86zM407 255q16 -7 28 -20l39 54q-17 7 -29 20zM447 376q-4 -25 11 -46q12 -17 32 -23t38 1l67 -92q-8 -9 -11 -21q-1 -3 -1 -4v-1.5 v-0.5q0 -1 -1 -1v0v-1v-1v-1.5v-1.5v-1v-1v-1v-4v-1v-2v-1v-1v-1q0 -1 1 -1v-2v-1v-1q0 -1 1 -2v-1v-1v-1q3 -9 9 -18q15 -20 40.5 -24t46 11t24.5 40t-11 46q-18 25 -49 25q-11 0 -21 -3l-67 91q13 16 13.5 36.5t-11.5 37.5q-13 17 -33 23v87q-17 -4 -34 0v-87 q-10 -3 -19 -9q-21 -15 -25 -40zM553 38q20 -23 50.5 -28t66 8.5t68.5 42.5q54 50 74 117t-6 113q-24 44 -78 44q-7 -1 -15 -1q-52 -7 -101 -52q27 18 55 23t50.5 -4t35.5 -31q22 -39 5 -97t-64 -101q-36 -32 -75 -41.5t-66 7.5zM581 408q9 -16 11 -33l52 17l32 8 q15 -21 40.5 -25t46 11t24.5 40.5t-11 45.5q-18 25 -49 26h-1h-1q-19 -1 -35 -12q-26 -19 -25 -51zM695 548q30 41 68.5 51t68.5 -15q22 -19 31.5 -53.5t4 -75t-24.5 -77.5q-14 -25 -32 -44q1 -1 1 -2q10 -8 18 -19q34 25 57 69q35 65 31.5 135.5t-43.5 104.5q-24 21 -55 21 q-23 0 -47 -12q-47 -24 -78 -83z" />
<glyph unicode="&#xf012;" d="M222.5 293.5q3.5 -51.5 25 -94.5t56.5 -77.5t66 -56t77 -45t54 -23.5t58.5 26t91 58t67 66.5t37 55t19 66t0 93.5t-44.5 125.5t-56.5 142t-25.5 109.5q-2 26 -7 38q3 1 4 3q-1 0 -5 -1q-2 4 -4 4q-8 0 -68 -29.5t-97 -53.5q-27 -19 -37.5 -20t-45.5 12q-46 17 -52 13.5 t-6 -27t-11 -75.5t-46.5 -129t-44 -103t-5 -77.5z" />
<glyph unicode="&#xf013;" d="M76 391q-2 -50 41.5 -85.5t93.5 -25.5q29 4 53 22.5t36.5 46.5t8.5 57q0 42 -33 75t-75 32h-8q-49 4 -86 -35t-31 -87zM156 551q4 -1 48.5 -7t62.5 -4q32 53 80.5 90.5t106.5 52.5q56 12 135 2q75 -17 134 -71t82 -128q6 -11 19.5 -24.5l23 -23t16.5 -26t-1 -32.5 q-7 -17 -24.5 -34t-31.5 -34.5t-16 -39.5q-37 -83 -119.5 -130.5t-172.5 -37.5q-71 4 -133 45.5t-100 105.5q-13 1 -49 -4.5t-54 -3.5q-5 -14 2.5 -30.5t27 -42t21.5 -30.5q58 -72 144 -111.5t177 -35.5q87 -1 167 40t136 111q46 56 68.5 127.5t17.5 144.5q-4 120 -82 220.5 t-193 137.5q-58 19 -121 19h-8q-117 0 -219 -69t-145 -177zM375 363q15 -39 58.5 -50t73.5 18q17 14 24 35.5t3 42.5t-18 39t-35 24q-11 4 -28 4h-5q-41 1 -65 -37t-8 -76zM582 366q9 -22 31.5 -31.5t46.5 -3.5t36 27q19 27 6 59.5t-45 40.5q-2 0 -18 2q-34 0 -53 -32 t-4 -62zM755.5 407.5q-9.5 -27.5 10.5 -44.5q13 -12 29.5 -11t27 12.5t14 26.5t-10.5 30q-10 13 -31 14q-2 1 -3 1q-27 -1 -36.5 -28.5z" />
<glyph unicode="&#xf014;" d="M0 380q0 -29 29 -29h140v-135q0 -6 3 -11t8 -8t11 -3h107q2 0 4.5 1.5t5 4.5t2.5 7v49h-54q-8 0 -12.5 3t-6 8t-1.5 14v227q0 9 1.5 14t6 8t12.5 3h54v50q0 5 -4.5 8.5t-7.5 3.5h-91h-9q-29 0 -29 -29v-136h-140q-29 0 -29 -29v-21zM269 297q0 -3 0.5 -5t2.5 -3.5t4 -2.5 t4 -1h220v54l-54 54l54 53v54h-220q-3 0 -5.5 -1.5t-4 -4t-1.5 -6.5v-191zM347 395q0 14 10.5 24.5t25 10.5t24.5 -10.5t10 -25t-10 -24.5t-25 -10q-9 0 -17.5 4.5t-13 12.5t-4.5 18zM479 393l54 -54v-54h187q5 0 8 3.5t3 8.5v191q0 5 -3 8.5t-8 3.5h-187v-54zM583 394.5 q0 14.5 10 25t24.5 10.5t25 -10.5t10.5 -25t-10.5 -24.5t-25 -10t-24.5 10t-10 24.5zM690 207q0 -6 4.5 -9.5t7.5 -3.5h107q9 0 15.5 6.5t6.5 15.5v135h140q29 0 29 29v21q0 29 -29 29h-140v136q0 29 -29 29h-9h-91q-1 0 -3 -1l-4 -2t-3.5 -3.5t-1.5 -5.5v-50h54q12 0 16 -6 t4 -19v-227q0 -9 -1.5 -14t-6 -8t-12.5 -3h-54v-49z" />
<glyph unicode="&#xf015;" d="M0 733q3 -116 63.5 -236.5t158 -219.5t217.5 -169q-42 -33 -87.5 -55.5t-93.5 -35.5v-5h-1v-9q42 5 83 16q1 0 2.5 0.5t2.5 0.5q77 18 155 55q27 -14 51 -24q99 -45 204 -54v10v5q-101 25 -190 97q119 69 215.5 167.5t156.5 219t63 237.5l-130 -50l-2 -1l-43 -14h-1 l-129 -39q1 -12 1 -22q0 -109 -52 -229t-141 -212q-86 92 -136.5 210t-50.5 225q0 13 1 23l-130 38h-1l-41 15l-2 1z" />
<glyph unicode="&#xf016;" d="M148 798l64 -720l288 -80l288 79l64 721h-704zM279 650h221h221l-8 -88h-213h-125l8 -90h117h205l-24 -271l-181 -51l-181 51l-13 141h89l7 -73l98 -27l98 27l11 114h-109h-197z" />
<glyph unicode="&#xf017;" d="M58 131l349 -133l402 133l53 268l11 54l69 345h-752l-30 -149h604l-19 -96h-604l-30 -148h604l-33 -169l-244 -81l-211 81l15 73h-149z" />
<glyph unicode="&#xf018;" d="M-33 798l132 -132h1h273l96 -97l-141 -141l-97 96v75h-132v-130l229 -229l-93 -93l149 -149h226h423l-132 131h-193h-269l-110 111l47 46l91 -91h188l-185 185l47 48l185 -185v187l-91 91l46 47l-229 230h-226h-235zM658 569l110 -110v-263h133v317l-149 149z" />
<glyph unicode="&#xf019;" d="M100 -2l400 202l400 -202v133l-400 202l-400 -202v-133zM100 230l400 202l400 -202v133l-400 202l-400 -202v-133zM100 462l400 202l400 -202v133l-400 202l-400 -202v-133z" />
<glyph unicode="&#xf099;" d="M27 460q0 -28 8.5 -53.5t22.5 -44t33 -29t41 -10.5q18 0 35 8q-29 -77 2 -145q31 -73 103 -117.5t158 -56.5q102 -14 199.5 12.5t161.5 97.5q39 42 51 98.5t-8 109.5q17 -7 34 -7q29 0 53 18t38 49.5t14 69.5q0 56 -30.5 96t-74.5 40q-37 0 -66 -31q-13 76 -64 127 q-45 46 -107.5 70t-130.5 24h-5q-59 0 -114 -19.5t-100.5 -58.5t-67.5 -92q-11 -24 -15 -50q-29 30 -66 30q-44 0 -74.5 -40t-30.5 -96zM195.5 287.5q7.5 60.5 50.5 95.5q14 8 15 20t-6 24t-13 27.5t-3 27.5q-10 61 18.5 119t85.5 75q15 4 29 5q40 2 75 -22t53 -62 q16 36 50 59.5t72 24.5q18 0 36 -6q57 -17 85 -74.5t18 -118.5q2 -13 -4.5 -30t-12.5 -29t-3.5 -25t20.5 -21q47 -47 44.5 -116.5t-46.5 -117.5q-97 -104 -294 -93q-79 5 -147 36.5t-102 93.5q-28 47 -20.5 107.5zM268 342q0 -3 2 -6t5 -4q102 -39 225 -39t224 39q8 2 8 10 q0 4 -3 7.5t-8 3.5q-2 -1 -4 -1q-32 -13 -68 -21t-73 -12t-76 -4t-76 4t-73 12t-68 21h-4h-1q-10 0 -10 -10zM374 449q0 -14 5.5 -26t15 -19.5t21.5 -7.5q17 0 29.5 15.5t12.5 37.5t-12.5 37.5t-30 15.5t-29.5 -15.5t-12 -37.5zM542 449q0 -22 12.5 -37.5t30 -15.5 t29.5 15.5t12 37.5t-12 37.5t-29.5 15.5t-30 -15.5t-12.5 -37.5z" />
</font>
</defs>
</svg>
